<?xml version="1.0" standalone="no"?>
<!DOCTYPE svg PUBLIC "-//W3C//DTD SVG 20010904//EN"
 "http://www.w3.org/TR/2001/REC-SVG-20010904/DTD/svg10.dtd">
<svg version="1.0" xmlns="http://www.w3.org/2000/svg"
 width="1200.000000pt" height="646.000000pt" viewBox="0 0 1200.000000 646.000000"
 preserveAspectRatio="xMidYMid meet">

<g transform="translate(0.000000,646.000000) scale(0.100000,-0.100000)"
fill="#d1cbcb" stroke="none">
<path d="M3065 6452 c-113 -9 -145 -24 -158 -73 -8 -30 7 -22 19 9 16 42 67
51 264 47 91 -2 178 -4 193 -5 21 0 30 -6 34 -21 5 -19 11 -20 64 -14 46 5 64
3 88 -11 17 -10 31 -22 31 -26 0 -9 -63 -42 -100 -53 -59 -17 -120 -49 -120
-61 0 -17 19 -18 55 -4 14 5 23 14 20 20 -3 5 1 10 9 10 40 0 19 -23 -56 -61
-46 -23 -93 -51 -106 -62 -21 -19 -26 -20 -69 -9 -30 9 -50 9 -56 3 -7 -7 -4
-10 9 -10 10 1 36 -2 56 -6 28 -6 43 -3 65 13 15 11 70 41 122 67 93 46 94 47
73 64 -22 16 -22 16 25 34 27 9 59 25 72 35 l24 19 -37 28 c-38 29 -60 33
-117 21 -31 -7 -37 -5 -41 12 -4 15 -17 22 -49 26 -50 6 -269 12 -314 8z m355
-202 c-20 -13 -33 -13 -25 0 3 6 14 10 23 10 15 0 15 -2 2 -10z"/>
<path d="M4348 6449 c-16 -6 -28 -17 -28 -26 0 -15 -22 -12 -70 12 -26 13
-148 14 -168 1 -7 -4 -12 -18 -12 -32 0 -26 27 -33 48 -12 9 9 16 7 32 -7 34
-31 14 -38 -89 -31 -106 8 -131 3 -131 -25 0 -22 -10 -24 -30 -6 -12 10 -12 9
-1 -5 18 -24 41 -23 41 1 0 27 18 31 128 24 83 -5 100 -3 105 9 3 10 -6 27
-23 43 -25 24 -30 26 -36 12 -7 -20 -34 -23 -34 -3 0 24 26 39 48 27 11 -6 35
-8 54 -5 20 4 54 -1 84 -11 48 -16 49 -16 63 4 12 19 23 21 129 21 63 0 113 2
111 4 -11 10 -197 14 -221 5z"/>
<path d="M4546 6422 c-98 -33 -59 -53 64 -33 30 5 95 12 145 16 81 7 89 6 77
-8 -25 -30 -4 -40 72 -33 69 6 70 6 37 -9 -18 -8 -70 -19 -115 -24 -120 -14
-307 -86 -290 -112 8 -13 48 -4 126 28 33 13 102 31 152 38 l91 14 -84 -5
c-60 -3 -106 -13 -160 -34 -78 -31 -113 -38 -95 -21 18 19 195 71 275 80 84
11 130 27 137 49 3 9 -15 12 -69 12 -57 0 -70 3 -61 12 7 7 12 16 12 20 0 13
-140 9 -223 -7 -103 -20 -151 -19 -84 2 26 8 47 18 47 24 0 5 -1 9 -2 8 -2 0
-25 -8 -52 -17z"/>
<path d="M3990 6405 c0 -8 9 -15 20 -15 11 0 20 7 20 15 0 8 -9 15 -20 15 -11
0 -20 -7 -20 -15z"/>
<path d="M3940 6395 c0 -8 5 -15 10 -15 6 0 10 7 10 15 0 8 -4 15 -10 15 -5 0
-10 -7 -10 -15z"/>
<path d="M3854 6325 c-5 -12 -24 -15 -86 -15 -90 0 -134 -17 -144 -55 -3 -14
-12 -25 -20 -25 -8 0 -14 -4 -14 -10 0 -13 6 -13 31 0 11 6 19 21 19 35 0 14
4 25 9 25 5 0 17 3 25 6 12 5 15 2 10 -10 -8 -20 23 -33 39 -17 9 10 8 16 -7
27 -18 13 -12 14 60 14 68 0 81 3 92 20 7 13 8 20 2 20 -6 0 -13 -7 -16 -15z"/>
<path d="M2658 6318 c-46 -10 -62 -24 -35 -32 41 -13 68 -16 62 -6 -3 5 -18
10 -33 11 -19 1 -14 4 18 11 25 5 61 13 80 18 l35 8 -40 0 c-22 0 -61 -5 -87
-10z"/>
<path d="M5084 6319 c-10 -17 13 -36 27 -22 12 12 4 33 -11 33 -5 0 -12 -5
-16 -11z"/>
<path d="M5020 6307 c0 -7 -16 -21 -35 -30 -43 -21 -45 -21 -45 -2 0 23 -16
18 -17 -6 -2 -19 2 -20 30 -14 18 3 64 7 102 9 65 3 150 24 100 25 -11 0 -38
-4 -59 -9 -41 -9 -79 1 -57 14 16 10 14 26 -4 26 -8 0 -15 -6 -15 -13z"/>
<path d="M7640 6295 c0 -9 -9 -15 -25 -15 -14 0 -25 -4 -25 -9 0 -14 28 -33
42 -28 8 4 7 6 -4 6 -10 1 -18 5 -18 11 0 5 6 7 14 4 8 -3 19 3 25 15 14 25
14 31 1 31 -5 0 -10 -7 -10 -15z"/>
<path d="M7756 6291 c-3 -5 0 -14 8 -20 10 -8 16 -8 25 2 6 8 8 17 4 20 -9 10
-31 9 -37 -2z"/>
<path d="M5235 6280 l40 -6 -45 -22 c-25 -12 -51 -22 -58 -22 -7 0 -15 -6 -18
-14 -4 -9 -27 -17 -62 -22 -56 -6 -82 -18 -82 -35 0 -5 13 -9 30 -9 l29 0 -19
-33 c-11 -19 -31 -39 -44 -45 -19 -8 -23 -16 -18 -39 6 -35 30 -63 53 -63 10
0 21 -5 25 -11 4 -8 -5 -9 -33 -5 -44 8 -97 -8 -91 -27 3 -6 22 -14 44 -17
l39 -6 -32 -8 c-40 -9 -42 -22 -5 -39 15 -6 35 -21 44 -32 16 -19 15 -20 -20
-26 l-37 -6 37 -2 c20 0 40 3 43 9 10 16 -28 59 -60 68 l-30 9 33 7 c41 10 37
27 -9 40 -33 11 -32 11 29 14 75 4 82 22 20 47 -41 16 -42 18 -20 26 24 9 22
29 -4 29 -21 0 -17 18 6 25 11 4 27 20 35 36 9 16 20 29 25 29 6 0 10 7 10 15
0 11 -11 15 -37 16 -48 0 -21 13 50 23 27 4 50 13 53 21 3 7 20 16 39 19 38 7
88 43 80 57 -4 5 -23 8 -43 8 l-37 -2 40 -7z"/>
<path d="M7370 6270 c0 -5 7 -10 15 -10 8 0 15 5 15 10 0 6 -7 10 -15 10 -8 0
-15 -4 -15 -10z"/>
<path d="M3028 6250 c-57 -30 -117 -41 -163 -28 -22 6 -63 11 -91 12 -28 0
-59 8 -70 16 -17 13 -17 13 1 -9 16 -18 27 -22 55 -18 35 6 163 -22 177 -37 5
-5 -20 -6 -55 -2 -65 7 -92 -2 -92 -30 0 -20 70 -64 114 -71 30 -5 35 -8 22
-15 -17 -10 -89 -2 -114 11 -14 8 -34 38 -54 84 -7 15 -17 27 -23 27 -5 0 -39
14 -74 30 -37 18 -71 28 -80 24 -12 -5 -8 -9 14 -15 58 -15 145 -54 145 -66 0
-6 12 -30 27 -52 19 -29 37 -44 62 -51 49 -13 104 -13 119 2 19 19 14 28 -15
28 -34 0 -103 31 -122 54 -22 26 2 37 65 29 83 -9 241 52 220 85 -10 16 -25
14 -68 -8z m60 -2 c-5 -13 -97 -52 -105 -44 -6 6 79 56 95 56 8 0 12 -6 10
-12z"/>
<path d="M7460 6253 c0 -17 77 -28 96 -13 21 18 9 25 -47 25 -31 0 -49 -4 -49
-12z m85 -3 c-3 -5 -14 -10 -23 -10 -15 0 -15 2 -2 10 20 13 33 13 25 0z"/>
<path d="M7677 6264 c-8 -8 1 -24 14 -24 5 0 9 7 9 15 0 15 -12 20 -23 9z"/>
<path d="M8680 6255 c0 -8 9 -15 20 -15 11 0 20 7 20 15 0 8 -9 15 -20 15 -11
0 -20 -7 -20 -15z"/>
<path d="M8797 6244 c-21 -14 -41 -32 -44 -40 -3 -8 -16 -20 -30 -27 l-24 -13
26 -24 c19 -18 28 -21 37 -12 9 9 8 12 -4 12 -8 0 -21 7 -28 15 -11 13 -7 15
25 15 28 0 36 -4 32 -14 -5 -12 1 -12 38 1 47 16 85 6 85 -22 0 -21 14 -19 35
5 29 32 36 24 33 -32 -3 -60 -3 -60 -88 -29 -30 10 -71 22 -90 25 -19 3 10
-10 65 -29 70 -24 103 -31 111 -24 19 16 26 62 15 92 -12 30 -32 35 -51 12
-19 -23 -33 -7 -26 30 6 30 3 37 -27 59 -41 31 -42 31 -90 0z m92 -16 c23 -20
23 -22 5 -35 -29 -21 -134 -16 -134 7 0 13 63 50 86 50 11 0 31 -10 43 -22z"/>
<path d="M7223 6228 c-13 -6 -23 -17 -23 -24 0 -7 10 -19 23 -25 22 -12 22
-12 3 9 -18 21 -18 22 8 32 34 12 57 13 38 1 -7 -4 -15 -20 -16 -34 -2 -20 2
-27 22 -32 13 -3 27 -4 29 -1 8 8 -8 27 -18 21 -17 -11 -23 27 -6 40 33 24
-16 34 -60 13z"/>
<path d="M7331 6226 c-17 -21 4 -71 37 -85 30 -14 32 -14 32 4 0 8 -9 15 -20
15 -24 0 -27 15 -4 24 27 10 52 7 57 -8 6 -15 82 -16 106 -2 23 14 11 28 -19
23 -20 -5 -32 -2 -38 9 -5 9 -27 16 -53 19 -24 2 -53 6 -65 10 -13 4 -25 1
-33 -9z m48 -9 c6 -8 8 -17 4 -20 -12 -12 -53 -7 -53 6 0 28 30 37 49 14z m80
-16 c7 -5 10 -14 7 -20 -11 -17 -23 -13 -29 9 -6 22 0 25 22 11z m81 -15 c0
-2 -7 -7 -16 -10 -8 -3 -12 -2 -9 4 6 10 25 14 25 6z"/>
<path d="M7692 6217 c-20 -22 -21 -37 -1 -37 10 0 49 41 49 52 0 16 -27 8 -48
-15z m28 -2 c-7 -8 -18 -15 -24 -15 -6 0 -2 7 8 15 25 19 32 19 16 0z"/>
<path d="M7793 6233 c-7 -2 -13 -10 -13 -18 0 -16 62 -5 68 13 4 12 -30 16
-55 5z"/>
<path d="M7567 6224 c-5 -5 9 -47 20 -63 2 -2 12 4 23 14 23 21 27 50 5 42 -8
-4 -17 -2 -20 3 -7 11 -19 13 -28 4z m41 -23 c10 -6 10 -10 -1 -20 -12 -9 -16
-7 -20 9 -5 21 0 25 21 11z"/>
<path d="M3473 6195 c-29 -13 -53 -29 -53 -34 0 -19 36 -30 73 -21 28 6 37 5
37 -5 0 -18 -47 -54 -79 -61 -14 -3 -34 -9 -43 -15 -10 -5 -29 -9 -44 -9 -37
0 -94 -29 -94 -48 0 -14 1 -14 13 1 15 20 59 37 97 37 16 0 32 5 35 10 3 6 20
10 37 10 34 0 88 49 88 81 0 18 -5 19 -50 13 -27 -4 -50 -4 -50 0 0 14 67 46
97 46 17 0 35 5 38 10 12 19 -50 10 -102 -15z"/>
<path d="M2534 6200 c-12 -5 -29 -19 -38 -31 -21 -31 -5 -47 61 -64 45 -12 46
-13 21 -20 -34 -9 -34 -8 -6 -45 18 -25 29 -30 66 -30 28 0 54 7 73 21 16 11
33 17 39 14 15 -9 12 -32 -5 -39 -8 -3 -15 -11 -15 -18 0 -6 -9 -22 -21 -34
l-21 -22 21 -11 c11 -7 71 -15 133 -20 62 -5 120 -12 128 -15 17 -7 102 33
108 51 2 7 -10 13 -30 15 -32 4 -32 5 34 36 64 30 103 66 92 84 -3 4 -20 8
-37 9 -27 0 -29 2 -12 9 11 5 29 11 39 14 34 11 11 16 -27 5 -62 -17 -63 -45
-2 -41 28 2 33 0 29 -13 -10 -26 -104 -69 -153 -69 -24 -1 -46 -6 -48 -12 -4
-13 38 -31 82 -37 l30 -3 -37 -17 c-33 -15 -52 -15 -175 -5 -138 11 -172 20
-143 38 20 13 33 13 25 0 -3 -5 -2 -10 3 -10 19 0 21 14 5 32 -15 17 -15 20
-3 28 23 15 64 12 86 -6 19 -15 19 -15 -1 -11 -11 3 -29 8 -40 12 -20 7 -20 6
-1 -9 22 -18 66 -22 66 -6 0 12 -103 80 -120 80 -7 0 -23 -9 -37 -20 -16 -13
-41 -20 -67 -20 -34 0 -43 4 -53 25 -11 24 -10 26 18 32 36 7 38 21 4 28 -14
3 -37 8 -52 11 -30 6 -53 21 -53 35 0 16 32 39 56 39 14 0 22 4 19 10 -7 12
-13 12 -41 0z"/>
<path d="M6421 6181 c-11 -20 -14 -20 -41 -6 -16 8 -43 15 -60 15 -30 0 -31
-1 -24 -35 5 -27 3 -35 -9 -35 -8 0 -20 7 -27 15 -24 28 -50 28 -81 -1 -16
-15 -32 -24 -36 -20 -4 4 0 12 10 17 29 17 19 29 -26 29 -44 0 -92 -24 -82
-41 4 -5 16 -9 28 -8 20 1 20 2 -3 9 l-25 7 28 12 c16 6 40 11 55 11 26 -1 26
-1 7 -16 -17 -13 -18 -16 -5 -24 21 -13 24 -13 53 10 32 26 45 25 74 -2 l23
-22 22 22 c17 17 20 24 10 34 -22 22 -13 30 26 23 43 -8 64 -23 55 -39 -3 -6
3 -2 15 8 12 11 22 26 22 34 0 11 8 13 33 8 17 -4 49 -9 70 -13 20 -3 37 -8
37 -12 0 -12 -73 -53 -94 -53 -12 0 -51 3 -87 7 -48 6 -68 4 -74 -4 -4 -8 1
-14 13 -18 28 -7 32 -36 7 -48 -17 -9 -77 -96 -88 -128 -1 -5 -19 2 -39 16
l-37 24 25 12 c29 13 27 35 -2 38 -16 2 -16 1 -1 -3 26 -8 20 -21 -13 -27 -16
-4 -30 -10 -30 -15 0 -14 82 -63 96 -58 7 3 24 27 38 53 36 71 49 85 69 77 10
-3 24 -19 33 -35 12 -23 21 -29 48 -29 50 0 64 23 30 49 -14 11 -41 26 -60 33
-19 6 -34 17 -34 23 0 7 -10 17 -22 23 l-23 11 22 0 c12 1 46 -4 75 -10 51
-11 55 -10 115 22 35 19 63 37 63 41 0 9 -61 26 -123 34 -39 6 -46 4 -56 -15z
m11 -157 c54 -28 52 -44 -6 -44 -25 0 -27 3 -22 25 5 20 3 25 -13 25 -11 0
-23 5 -26 10 -10 17 13 11 67 -16z"/>
<path d="M6742 6163 c4 -22 43 -25 43 -3 0 8 -11 16 -23 18 -19 3 -23 0 -20
-15z"/>
<path d="M6906 6173 c-11 -11 -6 -23 9 -23 8 0 15 4 15 9 0 13 -16 22 -24 14z"/>
<path d="M7650 6160 c0 -5 5 -10 10 -10 6 0 10 5 10 10 0 6 -4 10 -10 10 -5 0
-10 -4 -10 -10z"/>
<path d="M2350 6145 c0 -16 27 -32 37 -21 7 7 -16 36 -28 36 -5 0 -9 -7 -9
-15z"/>
<path d="M2167 6123 c-13 -12 -7 -28 16 -42 22 -14 22 -14 3 8 -24 27 -17 34
26 26 47 -9 107 -44 131 -77 32 -43 13 -44 -45 -4 -29 20 -60 36 -68 35 -8 0
-4 -5 9 -10 17 -7 22 -15 18 -29 -3 -11 -1 -20 4 -20 5 0 9 5 9 10 0 17 22 11
46 -11 24 -22 54 -20 54 4 0 21 -61 78 -105 98 -41 19 -86 24 -98 12z"/>
<path d="M5105 6120 c3 -5 10 -10 16 -10 5 0 9 5 9 10 0 6 -7 10 -16 10 -8 0
-12 -4 -9 -10z"/>
<path d="M9040 6084 c-37 -33 -58 -69 -47 -80 5 -5 125 22 165 37 12 5 22 15
22 22 0 13 -68 57 -89 57 -6 0 -29 -16 -51 -36z m86 10 c19 -9 34 -22 34 -29
0 -6 -35 -21 -80 -32 -44 -11 -80 -17 -80 -12 0 10 74 89 84 89 5 0 23 -7 42
-16z"/>
<path d="M6075 6090 c-3 -5 -15 -10 -26 -10 -22 0 -24 -9 -5 -35 9 -13 20 -16
36 -12 13 3 30 1 37 -4 9 -8 24 -3 55 15 24 14 37 26 30 26 -8 0 -27 -8 -43
-17 -25 -15 -33 -16 -51 -4 -17 11 -22 11 -29 -1 -7 -10 -12 -10 -26 5 -15 15
-15 17 -1 17 8 0 21 7 28 15 7 8 10 15 7 15 -3 0 -9 -4 -12 -10z"/>
<path d="M6621 6090 c-16 -9 -6 -30 15 -30 15 0 20 25 6 34 -4 2 -14 1 -21 -4z"/>
<path d="M6547 6074 c-8 -8 1 -24 14 -24 5 0 9 7 9 15 0 15 -12 20 -23 9z"/>
<path d="M6200 6043 l-25 -26 33 17 c18 9 30 21 27 26 -7 12 -5 13 -35 -17z"/>
<path d="M1923 6053 c-8 -3 -11 -14 -7 -29 7 -26 -5 -31 -36 -14 -16 9 -19 8
-14 -7 5 -15 3 -15 -11 2 l-17 20 4 -20 c2 -12 13 -21 28 -23 14 -2 32 -10 42
-19 14 -13 19 -13 45 1 15 8 41 26 58 39 25 21 28 27 16 41 -13 15 -79 21
-108 9z m95 -20 c-4 -21 -64 -63 -89 -63 -32 0 -21 17 24 38 l42 21 -40 1
c-32 1 -36 3 -20 10 11 5 35 9 53 9 26 1 33 -3 30 -16z"/>
<path d="M2420 6037 c0 -8 9 -22 20 -32 19 -17 21 -17 41 1 19 17 19 19 3 31
-23 17 -64 17 -64 0z m44 -3 c9 -3 16 -10 16 -16 0 -14 -43 -5 -48 10 -4 13 7
15 32 6z"/>
<path d="M8775 6041 c-6 -11 9 -23 19 -14 9 9 7 23 -3 23 -6 0 -12 -4 -16 -9z"/>
<path d="M9212 6039 c2 -6 8 -10 13 -10 5 0 11 4 13 10 2 6 -4 11 -13 11 -9 0
-15 -5 -13 -11z"/>
<path d="M5085 6019 c-10 -15 3 -25 16 -12 7 7 7 13 1 17 -6 3 -14 1 -17 -5z"/>
<path d="M8736 6023 c-11 -11 -6 -23 9 -23 8 0 15 4 15 9 0 13 -16 22 -24 14z"/>
<path d="M9074 5975 c-17 -23 -24 -42 -21 -56 5 -18 2 -20 -21 -16 -15 3 -51
-3 -80 -13 -36 -13 -61 -16 -76 -10 -13 4 -44 4 -72 -1 -27 -6 -88 -16 -136
-23 -47 -8 -97 -21 -110 -31 -19 -14 -19 -16 -3 -10 59 22 282 58 320 51 21
-4 48 -1 71 9 20 8 57 15 81 15 42 0 45 2 39 23 -11 44 43 93 89 81 24 -6 25
-7 9 -25 -15 -17 -14 -19 22 -34 30 -13 56 -15 106 -11 42 4 83 2 107 -6 33
-10 38 -16 36 -38 -3 -39 -11 -48 -58 -61 -54 -14 -177 -90 -177 -109 0 -16
76 -12 120 6 44 18 49 28 23 43 -15 9 -13 10 14 11 17 0 35 -4 38 -10 3 -5 14
-10 23 -10 24 0 -15 26 -54 36 l-29 8 25 7 c50 14 60 10 76 -31 16 -40 17 -40
53 -33 56 12 118 7 136 -11 21 -21 122 -22 161 -1 33 17 116 20 145 5 25 -14
25 -40 -1 -40 -11 0 -20 -6 -20 -14 0 -15 65 -78 102 -97 12 -6 -1 9 -29 35
-29 27 -53 51 -53 56 0 4 9 10 20 13 11 3 20 10 20 16 0 6 -9 20 -20 31 -16
16 -33 20 -87 20 -44 -1 -75 -6 -87 -15 -28 -21 -136 -21 -136 0 0 8 -11 18
-26 21 -27 7 -109 1 -135 -10 -13 -6 -20 3 -33 36 -16 37 -16 43 -2 53 9 7 12
16 6 25 -5 8 -7 25 -3 37 4 19 1 23 -20 23 -14 0 -29 5 -33 11 -4 8 -30 10
-78 5 -48 -4 -83 -2 -108 7 -35 12 -36 14 -21 30 15 15 15 17 -11 27 -49 18
-73 12 -102 -25z m265 -239 c-10 -7 -89 -26 -110 -26 -30 0 -17 13 42 43 42
21 45 21 58 4 7 -10 11 -19 10 -21z"/>
<path d="M2157 5994 c-8 -8 1 -24 14 -24 5 0 9 7 9 15 0 15 -12 20 -23 9z"/>
<path d="M8667 5994 c-8 -8 1 -24 14 -24 5 0 9 7 9 15 0 15 -12 20 -23 9z"/>
<path d="M1737 5966 c-55 -20 -137 -77 -137 -96 0 -4 19 -10 42 -12 35 -3 47
0 65 20 13 14 23 28 23 32 0 4 11 5 24 3 26 -5 56 27 56 59 0 21 1 21 -73 -6z
m53 -22 c-11 -19 -20 -24 -38 -21 -17 3 -29 -3 -45 -24 -15 -22 -29 -29 -54
-29 -18 0 -33 4 -33 9 0 15 91 71 115 71 12 0 30 6 41 14 25 19 30 12 14 -20z"/>
<path d="M2513 5971 c-3 -11 -17 -21 -34 -25 -58 -11 -28 -53 47 -64 45 -7 56
-16 68 -54 3 -10 20 -19 43 -23 21 -3 54 -10 74 -15 41 -11 187 -12 264 -2 41
6 50 11 50 27 0 11 4 26 8 33 13 19 -1 34 -22 22 -10 -5 -87 -12 -170 -16
l-151 -7 -33 36 c-22 24 -42 37 -58 36 -21 -1 -20 -2 7 -10 18 -5 34 -17 37
-29 3 -11 17 -24 32 -30 33 -13 269 -13 313 0 29 8 33 7 28 -6 -3 -9 -6 -21
-6 -29 0 -17 -244 -31 -292 -17 -18 6 -51 15 -73 21 -31 8 -43 17 -52 40 -9
25 -18 30 -56 36 -26 4 -54 14 -64 22 -16 13 -12 14 42 9 55 -5 57 -3 16 10
-11 4 -10 7 4 18 10 7 15 18 11 24 -11 18 -27 14 -33 -7z"/>
<path d="M3294 5983 c3 -4 39 -10 79 -13 72 -6 74 -13 6 -24 -19 -4 -44 -13
-55 -20 -18 -14 -18 -15 10 -26 16 -6 31 -8 34 -5 3 2 -6 9 -19 14 -27 10 -34
6 66 30 36 9 39 33 5 42 -33 9 -135 11 -126 2z"/>
<path d="M2660 5970 c0 -5 7 -10 15 -10 8 0 15 5 15 10 0 6 -7 10 -15 10 -8 0
-15 -4 -15 -10z"/>
<path d="M8870 5970 c0 -5 7 -10 15 -10 8 0 15 5 15 10 0 6 -7 10 -15 10 -8 0
-15 -4 -15 -10z"/>
<path d="M8627 5964 c-8 -8 1 -24 14 -24 5 0 9 7 9 15 0 15 -12 20 -23 9z"/>
<path d="M9240 5955 c0 -8 5 -15 10 -15 6 0 10 7 10 15 0 8 -4 15 -10 15 -5 0
-10 -7 -10 -15z"/>
<path d="M1876 5953 c-11 -11 -6 -23 9 -23 8 0 15 4 15 9 0 13 -16 22 -24 14z"/>
<path d="M3276 5953 c-11 -11 -6 -23 9 -23 8 0 15 4 15 9 0 13 -16 22 -24 14z"/>
<path d="M6520 5930 c0 -5 7 -10 15 -10 8 0 15 5 15 10 0 6 -7 10 -15 10 -8 0
-15 -4 -15 -10z"/>
<path d="M7870 5920 c-25 -11 -66 -19 -91 -19 -26 -1 -75 -10 -110 -20 -35
-10 -82 -23 -104 -28 -29 -7 -39 -14 -37 -26 1 -9 -22 -49 -53 -88 -55 -73
-77 -117 -29 -60 18 22 35 31 57 32 29 0 30 1 10 9 -30 12 -29 21 7 55 20 19
28 35 24 47 -4 14 0 18 20 18 14 0 52 9 85 20 32 12 92 25 132 30 75 8 207 49
159 48 -14 0 -45 -8 -70 -18z"/>
<path d="M10620 5930 c0 -5 7 -10 15 -10 8 0 15 5 15 10 0 6 -7 10 -15 10 -8
0 -15 -4 -15 -10z"/>
<path d="M2040 5920 c0 -5 6 -7 13 -5 6 3 20 -8 29 -25 12 -22 24 -30 45 -30
45 0 13 -19 -68 -41 -84 -22 -189 -36 -151 -19 30 13 28 28 -5 41 -20 7 -33 7
-45 0 -25 -16 -35 -14 -41 8 -12 48 42 52 137 11 50 -23 86 -19 86 8 0 14 -2
14 -9 3 -10 -15 -44 -11 -106 13 -59 23 -112 21 -120 -4 -3 -11 -3 -29 0 -41
6 -19 12 -20 58 -14 l52 6 -25 -20 c-21 -18 -23 -22 -10 -31 20 -14 77 -4 235
43 51 15 60 45 16 53 -17 4 -37 17 -46 30 -15 24 -45 33 -45 14z"/>
<path d="M2283 5923 c-41 -16 36 -107 85 -101 22 2 28 9 30 35 5 55 -56 90
-115 66z m85 -19 c16 -11 22 -24 20 -42 -5 -41 -37 -39 -78 3 -29 30 -32 37
-20 45 22 14 53 12 78 -6z"/>
<path d="M2310 5886 c0 -15 24 -28 34 -19 7 7 -13 33 -25 33 -5 0 -9 -6 -9
-14z"/>
<path d="M8900 5915 c0 -8 5 -15 10 -15 6 0 10 7 10 15 0 8 -4 15 -10 15 -5 0
-10 -7 -10 -15z"/>
<path d="M2216 5913 c-11 -11 -6 -23 9 -23 8 0 15 4 15 9 0 13 -16 22 -24 14z"/>
<path d="M7950 5909 c-24 -15 -198 -69 -223 -69 -55 0 -207 -142 -207 -193 0
-11 10 -31 22 -44 27 -29 19 -37 -29 -28 -26 4 -42 13 -48 28 -6 12 -19 23
-30 24 -18 3 -18 2 3 -9 24 -12 28 -23 12 -33 -25 -15 -5 -25 49 -25 88 0 116
15 67 38 -30 14 -41 44 -25 74 37 68 149 158 198 158 24 0 199 55 221 69 8 6
12 12 9 15 -2 3 -11 1 -19 -5z"/>
<path d="M10736 5913 c-11 -11 -6 -23 9 -23 8 0 15 4 15 9 0 13 -16 22 -24 14z"/>
<path d="M10266 5891 c-24 -26 -17 -62 16 -81 23 -12 31 -13 48 -2 13 8 35 10
60 6 43 -7 46 -4 30 27 -13 23 -7 24 25 3 18 -12 28 -13 44 -4 12 6 21 17 21
25 0 20 -42 29 -108 22 -40 -4 -65 -2 -82 8 -32 19 -34 18 -54 -4z m74 -16
c18 -9 31 -11 35 -5 3 6 13 10 21 10 8 0 12 -4 9 -10 -3 -5 -1 -19 5 -30 10
-19 9 -20 -28 -14 -22 3 -48 2 -57 -4 -37 -20 -72 9 -60 49 8 23 36 24 75 4z
m155 -4 c3 -6 -3 -15 -13 -20 -15 -8 -23 -6 -37 9 -18 19 -17 20 13 20 17 0
33 -4 37 -9z"/>
<path d="M3545 5878 c-66 -4 -135 -6 -152 -4 -40 6 -43 -1 -7 -14 18 -7 54 -7
108 -1 44 6 110 12 146 13 l66 4 29 -40 c58 -79 105 -161 105 -186 0 -14 5
-32 10 -40 9 -13 13 -11 30 9 23 27 28 25 32 -9 2 -18 -4 -28 -24 -38 -16 -7
-28 -17 -28 -22 0 -5 12 -12 28 -16 45 -9 72 -23 72 -36 0 -6 -10 -22 -22 -36
-22 -23 -22 -24 -5 -37 18 -13 17 -14 -2 -20 -26 -8 -47 -43 -33 -57 6 -6 12
-6 16 1 4 6 14 11 22 11 11 0 8 -10 -12 -41 -27 -44 -27 -89 1 -89 8 0 15 -8
15 -17 0 -53 125 -193 172 -193 11 0 28 -10 37 -21 16 -21 19 -21 48 -5 42 21
63 53 63 94 0 86 95 202 166 202 39 0 104 56 104 89 0 13 6 21 17 21 9 0 26 9
38 20 17 16 43 22 121 29 101 9 249 55 245 76 -2 16 -52 26 -98 21 -44 -6 -54
3 -28 24 8 6 13 17 12 23 -1 6 8 13 20 15 15 2 27 -5 39 -22 9 -14 24 -26 34
-26 29 0 35 38 12 69 l-20 27 21 10 c32 14 31 31 -2 39 -16 3 -32 13 -35 21
-3 8 -15 14 -26 14 -13 0 -20 7 -20 20 0 29 27 25 80 -10 25 -16 53 -30 63
-30 26 0 18 29 -13 48 l-25 16 24 -27 c32 -35 18 -34 -44 3 -61 36 -95 39 -95
9 0 -19 -4 -21 -35 -16 -41 7 -54 -7 -30 -33 10 -11 15 -26 11 -36 -9 -23 10
-33 48 -27 38 6 101 -33 101 -62 0 -27 -28 -25 -40 3 -8 19 -17 22 -45 20 -26
-2 -36 -8 -38 -23 -2 -11 -11 -25 -19 -32 -22 -17 -5 -36 27 -29 31 6 100 -3
100 -13 0 -3 -38 -18 -83 -33 -59 -20 -103 -28 -153 -28 -59 0 -77 -4 -108
-25 -20 -14 -43 -25 -51 -25 -8 0 -15 -7 -15 -15 0 -48 -56 -95 -113 -95 -62
0 -167 -142 -167 -225 0 -25 -8 -40 -31 -59 -36 -31 -45 -32 -52 -7 -3 12 -17
21 -40 25 -69 13 -157 116 -157 184 0 28 -3 32 -19 27 -13 -4 -20 0 -24 15 -3
11 -1 23 4 26 14 8 40 75 33 85 -3 5 -14 4 -25 -2 -38 -20 -32 0 6 22 33 20
35 24 21 34 -21 16 -20 24 5 51 l20 22 -27 21 c-15 11 -35 21 -45 21 -25 0
-24 4 6 34 22 22 23 28 14 50 -17 36 -38 40 -51 11 -15 -32 -28 -22 -28 21 0
19 -8 47 -19 62 -10 15 -24 36 -32 48 -56 84 -92 124 -112 123 -12 -1 -76 -6
-142 -11z m1372 -173 c31 -22 32 -23 10 -29 -12 -3 -44 -6 -70 -6 -43 0 -48 2
-42 19 4 13 -1 24 -17 36 -22 15 -21 16 31 9 30 -4 69 -17 88 -29z"/>
<path d="M4870 5695 c14 -7 27 -11 30 -9 6 7 -22 24 -40 23 -9 0 -5 -6 10 -14z"/>
<path d="M10184 5879 c-10 -17 13 -36 27 -22 12 12 4 33 -11 33 -5 0 -12 -5
-16 -11z"/>
<path d="M1726 5873 c-11 -11 -6 -23 9 -23 8 0 15 4 15 9 0 13 -16 22 -24 14z"/>
<path d="M2435 5869 c-10 -15 3 -25 16 -12 7 7 7 13 1 17 -6 3 -14 1 -17 -5z"/>
<path d="M2242 5858 c3 -7 13 -15 22 -16 12 -3 17 1 14 10 -3 7 -13 15 -22 16
-12 3 -17 -1 -14 -10z"/>
<path d="M2470 5841 c-8 -16 -6 -23 12 -35 28 -20 43 -20 63 0 15 15 15 18 -1
35 -22 25 -60 24 -74 0z m59 0 c17 -11 5 -31 -19 -31 -21 0 -34 15 -25 30 8
12 25 13 44 1z"/>
<path d="M5065 5851 c-6 -11 9 -23 19 -14 9 9 7 23 -3 23 -6 0 -12 -4 -16 -9z"/>
<path d="M10550 5850 c0 -5 12 -7 28 -4 15 3 38 0 52 -6 22 -9 20 -10 -18 -6
-23 2 -40 0 -36 -5 7 -12 84 -12 84 1 0 5 -9 14 -19 20 -25 13 -91 13 -91 0z"/>
<path d="M2187 5844 c-8 -8 1 -24 14 -24 5 0 9 7 9 15 0 15 -12 20 -23 9z"/>
<path d="M8397 5844 c-8 -8 1 -24 14 -24 5 0 9 7 9 15 0 15 -12 20 -23 9z"/>
<path d="M5106 5832 c-3 -6 -1 -14 5 -17 15 -10 25 3 12 16 -7 7 -13 7 -17 1z"/>
<path d="M6317 5814 c-8 -8 1 -24 14 -24 5 0 9 7 9 15 0 15 -12 20 -23 9z"/>
<path d="M1603 5785 c-28 -12 -33 -19 -33 -47 0 -38 -8 -52 -32 -61 -26 -9
-22 -18 23 -55 28 -24 45 -32 57 -26 15 7 14 8 -4 11 -12 2 -30 13 -40 24 -9
10 -24 19 -32 19 -9 0 -5 8 12 21 19 15 26 30 26 54 0 50 17 58 112 50 79 -7
128 -24 128 -45 0 -14 -37 -50 -51 -50 -6 0 -1 9 12 20 24 21 24 21 -19 0 -24
-11 -45 -27 -49 -35 -3 -8 -11 -15 -18 -15 -7 0 -23 -9 -36 -20 -24 -21 -24
-21 19 0 24 11 45 27 49 35 8 23 23 7 23 -24 0 -52 21 -66 98 -66 88 0 103
-11 25 -20 -32 -3 -68 -8 -80 -11 -25 -5 -32 -24 -9 -24 8 0 43 -15 78 -34 58
-31 69 -33 109 -25 24 4 55 8 69 8 24 0 24 0 6 -14 -18 -14 -19 -16 -2 -34 11
-12 16 -31 14 -53 l-4 -33 -12 28 c-17 40 -72 61 -144 54 -64 -6 -75 -1 -53
24 15 15 14 19 -11 38 -17 13 -34 19 -43 15 -26 -12 -53 -8 -116 16 -43 16
-74 21 -109 17 -31 -3 -63 1 -84 10 -39 16 -61 11 -119 -28 -51 -36 -75 -38
-43 -4 34 36 18 42 -45 16 -34 -14 -62 -20 -76 -16 -19 6 -21 5 -15 -16 4 -13
9 -42 11 -64 l5 -40 -13 37 c-6 20 -16 40 -20 44 -22 22 -210 70 -347 89 -52
7 -102 16 -111 19 -8 4 -27 2 -42 -3 -19 -7 -28 -6 -37 4 -7 8 -28 17 -49 20
-20 3 -44 10 -54 16 -10 5 -23 6 -30 2 -7 -4 -21 -6 -31 -4 -18 3 -39 -5 -98
-35 -14 -8 -33 -14 -41 -14 -9 0 -30 -12 -48 -27 -18 -16 -56 -39 -83 -53 -28
-14 -51 -30 -50 -35 1 -18 105 -96 135 -102 16 -3 29 -12 29 -19 0 -17 -39
-18 -73 -3 -18 8 -35 7 -73 -6 -27 -9 -52 -21 -56 -28 -3 -6 11 -28 33 -49 35
-34 44 -38 91 -38 34 0 58 6 70 17 17 15 18 15 18 -10 0 -29 -23 -48 -80 -66
-41 -13 -75 -61 -66 -94 8 -33 65 -87 91 -87 12 0 30 -9 39 -19 20 -22 93 -43
124 -34 21 5 21 3 11 -26 -13 -36 -50 -67 -126 -105 -28 -14 -54 -30 -58 -36
-10 -15 25 -24 38 -10 10 10 8 12 -6 7 -9 -4 -17 -3 -17 1 0 4 26 20 59 35 63
29 131 95 131 127 0 17 -7 20 -44 20 -52 0 -82 10 -115 39 -13 12 -34 21 -46
21 -23 0 -44 19 -64 58 -18 35 5 74 54 90 53 17 85 49 85 84 0 31 -15 35 -44
13 -33 -25 -126 -16 -126 11 0 8 -9 19 -20 26 -28 18 -26 23 23 42 40 15 47
15 81 1 27 -12 42 -13 56 -5 33 18 23 36 -33 63 -29 15 -65 40 -81 56 l-28 29
30 16 c17 9 37 16 45 16 7 0 26 14 42 30 16 17 33 30 38 30 6 0 38 13 71 29
46 22 73 28 106 25 63 -4 113 -15 128 -27 7 -5 38 -11 70 -13 151 -8 276 -32
425 -79 47 -15 57 -23 57 -41 0 -12 9 -32 19 -45 19 -23 20 -23 27 -5 4 12 1
38 -8 64 -14 37 -14 43 -1 38 8 -3 36 5 64 19 27 14 49 23 49 20 0 -3 -19 -19
-42 -36 -29 -21 -35 -29 -19 -24 16 5 21 4 17 -4 -12 -19 8 -12 76 28 84 49
88 50 118 38 14 -5 59 -10 100 -11 54 -1 89 -8 125 -24 35 -16 60 -21 85 -17
48 7 66 -5 48 -34 -18 -30 4 -43 64 -37 67 7 115 -9 134 -45 18 -36 38 -33 42
7 2 16 13 36 24 45 20 16 18 39 -4 39 -7 0 -6 -6 2 -15 10 -12 10 -15 -1 -15
-8 0 -21 5 -29 10 -13 9 -13 11 0 20 20 13 87 13 96 -1 12 -20 88 -49 128 -49
22 0 66 7 98 16 47 14 64 15 85 5 31 -14 56 3 72 51 10 28 9 30 -24 44 -26 10
-35 20 -35 38 0 27 29 56 57 56 30 0 67 -44 59 -73 -4 -19 0 -26 19 -35 14 -7
25 -20 25 -31 0 -31 15 -33 40 -6 13 14 29 25 36 25 16 0 34 -31 34 -58 0 -11
8 -30 18 -42 l19 -23 26 35 c16 21 27 48 27 66 0 27 4 32 25 32 13 0 36 -5 50
-12 21 -9 25 -18 23 -45 -1 -18 3 -38 10 -45 34 -34 -8 -73 -93 -85 -25 -3
-45 -9 -45 -13 0 -12 60 -60 74 -60 21 0 96 -59 96 -75 0 -19 -2 -19 -46 2
l-36 18 -20 -28 c-22 -30 -45 -34 -74 -12 -15 11 -16 16 -6 23 9 6 12 26 10
58 l-3 49 -49 0 c-56 0 -73 -20 -27 -30 17 -4 33 -10 36 -14 9 -16 -36 -45
-78 -50 -34 -5 -44 -11 -56 -36 -7 -16 -28 -46 -46 -65 -55 -61 -75 -92 -75
-119 0 -37 26 -71 56 -71 17 0 24 -6 24 -19 0 -32 11 -51 29 -51 9 0 51 -20
93 -45 50 -30 96 -49 134 -56 l59 -10 -3 -55 c-4 -53 -3 -56 41 -99 24 -25 52
-45 60 -45 26 0 44 40 50 110 2 39 13 83 26 107 27 54 26 79 -3 127 -22 37
-23 42 -9 74 9 21 12 48 8 68 -3 20 0 47 9 68 15 35 16 36 73 36 41 0 67 -6
88 -20 17 -11 45 -30 63 -41 31 -20 42 -52 22 -64 -15 -10 -12 -21 16 -54 23
-28 30 -31 63 -25 20 4 51 20 69 35 18 16 37 29 42 29 5 0 14 -19 21 -42 6
-24 21 -56 33 -73 12 -16 27 -42 33 -57 7 -16 34 -38 73 -59 l61 -32 -28 -12
c-32 -14 -59 -42 -49 -52 3 -4 29 -1 56 6 61 16 80 5 80 -44 0 -39 -9 -47 -78
-70 -63 -20 -63 -31 -1 -15 73 19 89 34 89 84 0 60 -17 73 -81 60 -59 -13 -66
1 -8 16 22 6 39 16 37 22 -3 7 -32 25 -65 42 -47 24 -64 38 -73 62 -6 18 -20
40 -31 50 -11 9 -26 41 -35 71 -18 61 -34 67 -75 27 -15 -14 -44 -30 -65 -35
-34 -7 -41 -6 -57 13 -12 14 -16 29 -12 42 14 45 10 59 -25 78 -19 11 -46 31
-60 44 -30 28 -76 39 -125 30 -49 -10 -78 -55 -71 -113 3 -23 2 -45 -3 -47
-21 -13 -19 -63 5 -112 l25 -52 -25 -61 c-14 -33 -26 -78 -26 -99 0 -59 -10
-100 -27 -106 -10 -4 -32 11 -61 39 -44 45 -45 46 -39 99 l5 54 -64 12 c-42 8
-88 27 -136 56 -40 24 -81 44 -90 44 -11 0 -18 8 -18 21 0 36 -19 59 -49 59
-20 0 -30 6 -34 20 -7 28 45 131 82 162 17 15 35 38 41 52 7 20 16 26 41 26
31 0 99 41 99 59 0 5 -17 16 -37 25 l-38 16 40 -3 c37 -2 40 -4 43 -35 2 -21
-3 -41 -13 -52 -21 -23 -13 -38 29 -55 29 -13 33 -12 59 13 26 24 29 25 63 13
41 -15 60 -5 49 28 -8 25 -52 57 -102 75 -42 15 -58 46 -23 46 23 0 76 24 102
47 16 14 16 18 2 45 -9 17 -13 40 -10 53 7 26 -17 51 -60 66 -21 6 -4 8 61 5
60 -2 108 -11 145 -25 30 -11 62 -21 71 -21 22 0 44 -26 29 -35 -5 -3 -10 -13
-10 -21 0 -10 7 -13 25 -8 20 5 25 2 27 -12 3 -37 0 -43 -33 -83 -28 -34 -40
-41 -70 -41 -49 0 -89 -31 -73 -57 10 -15 23 -17 77 -15 64 3 65 2 130 -46 35
-27 81 -52 100 -56 20 -4 57 -16 82 -27 51 -23 66 -19 47 11 -16 25 -15 30 2
30 45 0 29 55 -35 126 -28 30 -48 61 -46 67 8 25 44 17 84 -18 35 -30 46 -34
62 -26 11 6 23 20 26 31 3 11 9 20 13 20 4 0 14 5 22 10 12 7 11 13 -10 34
-13 15 -31 26 -40 26 -9 0 -31 11 -49 24 -18 13 -47 27 -66 30 -42 8 -52 22
-32 44 11 12 13 22 6 35 -14 25 -82 57 -121 57 -32 0 -32 0 -10 16 32 22 17
37 -29 29 -33 -6 -44 -2 -85 29 -56 43 -102 48 -133 14 -17 -18 -25 -20 -43
-11 -13 6 -31 14 -40 17 -11 3 -18 18 -20 43 -3 37 -4 38 -38 35 -19 -1 -46
-10 -59 -19 -22 -14 -25 -14 -36 1 -34 46 -155 -13 -155 -76 0 -33 13 -63 43
-95 17 -19 31 -23 81 -23 53 -1 59 -2 43 -14 -13 -10 -15 -21 -11 -45 6 -31 6
-32 -20 -25 -16 4 -26 2 -26 -5 0 -6 7 -11 15 -11 20 0 19 -29 -1 -37 -19 -7
-34 13 -34 48 0 14 -11 36 -26 50 l-26 24 -22 -27 c-26 -33 -36 -35 -36 -8 0
10 -9 24 -20 30 -11 6 -20 20 -20 31 0 11 -12 36 -26 55 -23 30 -25 37 -15 62
6 15 27 37 47 50 26 17 34 29 32 45 -3 19 -9 22 -54 22 -74 -1 -88 -15 -81
-87 3 -33 1 -61 -5 -64 -5 -3 -18 -20 -28 -36 -14 -23 -16 -37 -9 -55 5 -14 7
-29 4 -33 -3 -5 11 -6 31 -3 l36 6 -15 -30 c-21 -40 -43 -58 -53 -42 -4 6 0
16 10 21 9 5 16 13 16 19 0 5 -10 3 -22 -5 -43 -26 -72 -27 -90 -2 -16 23 -16
25 3 42 17 15 23 16 41 5 11 -7 22 -11 24 -8 2 2 -7 9 -20 16 -20 11 -28 10
-60 -11 -42 -27 -45 -35 -11 -44 29 -7 33 -30 8 -37 -46 -13 -96 -17 -128 -11
-31 5 -34 9 -29 30 4 15 2 24 -5 24 -6 0 -11 -7 -11 -15 0 -19 -14 -19 -29 -1
-6 7 -30 17 -53 20 -32 5 -39 9 -28 16 25 16 83 11 143 -14 59 -25 67 -21 42
18 -15 22 -14 24 15 36 41 17 33 34 -20 41 -28 4 -50 14 -61 28 -26 32 -42 96
-30 119 7 13 7 22 -1 30 -13 13 -38 5 -38 -13 0 -7 -11 -16 -25 -19 -18 -5
-27 -15 -32 -36 -5 -27 -23 -43 -23 -21 0 5 -16 19 -36 32 -29 18 -40 20 -55
11 -23 -14 -79 -4 -86 15 -4 9 -14 12 -27 9 -16 -4 -24 1 -31 17 -18 40 -163
68 -222 42z m1035 -32 c-2 -10 -19 -28 -38 -41 -19 -13 -38 -32 -42 -43 -16
-41 -38 -14 -38 47 0 29 4 35 33 43 55 16 89 13 85 -6z m-470 -38 c-24 -53 32
-155 85 -155 34 0 39 -10 14 -31 -18 -14 -20 -20 -9 -30 6 -7 12 -17 12 -22 0
-5 -6 -5 -12 1 -7 5 -38 17 -69 26 -54 16 -57 16 -132 -9 -101 -33 -121 -32
-201 10 l-67 35 49 0 c68 0 112 10 112 26 0 17 -59 28 -110 21 -47 -6 -70 8
-73 47 -2 24 5 32 51 58 l52 30 0 -31 c0 -34 16 -40 35 -14 11 15 15 15 29 4
13 -11 20 -11 28 -3 20 20 48 13 80 -18 34 -34 43 -33 51 10 4 19 15 34 30 39
14 5 27 17 31 26 3 9 10 14 16 10 6 -4 5 -15 -2 -30z m646 -1 c10 -9 16 -32
15 -57 l-1 -42 -14 35 -14 35 6 -40 c6 -41 30 -79 45 -70 4 3 5 29 2 59 -5 46
-2 57 16 75 12 12 34 21 51 21 28 0 30 -3 30 -34 0 -33 12 -49 35 -51 6 -1 23
-5 38 -9 23 -7 32 -4 48 13 11 11 28 21 39 21 33 0 72 -20 77 -38 6 -24 71
-48 86 -33 6 6 18 11 26 11 12 0 11 -3 -2 -18 -20 -22 -13 -32 20 -32 26 0 98
-33 108 -51 4 -6 2 -16 -4 -22 -28 -28 0 -67 47 -67 11 0 36 -11 56 -25 20
-14 43 -25 50 -25 6 0 21 -7 32 -15 19 -15 19 -15 -2 -32 -12 -10 -24 -26 -27
-35 -9 -27 -30 -22 -77 17 -40 34 -43 34 -71 20 -36 -19 -36 -25 -3 -56 71
-65 104 -139 68 -153 -9 -4 -17 -5 -18 -4 -16 42 -82 86 -100 68 -13 -13 12
-40 59 -61 22 -10 45 -27 52 -37 11 -18 7 -17 -45 4 -31 13 -70 24 -85 24 -16
0 -26 4 -22 10 3 5 -7 15 -22 22 -15 7 -34 20 -41 30 -6 9 -34 24 -60 32 -39
13 -55 14 -81 5 -36 -13 -58 -1 -48 25 5 11 20 16 54 17 56 1 93 12 75 23 -19
11 -14 24 14 42 24 16 28 16 53 1 24 -14 31 -14 47 -2 23 17 11 32 -30 37 -23
2 -31 10 -40 38 -8 24 -17 35 -29 34 -13 -1 -16 3 -12 16 7 23 -1 28 -104 62
-68 23 -109 29 -215 34 -72 3 -140 7 -151 9 -23 5 -65 71 -65 103 0 26 64 82
95 82 13 0 31 -7 39 -16z m36 -125 c0 -6 -4 -7 -10 -4 -5 3 -10 11 -10 16 0 6
5 7 10 4 6 -3 10 -11 10 -16z m470 -257 c0 -14 -11 -21 -26 -15 -8 3 -11 9 -8
14 7 11 34 12 34 1z m110 -177 c33 -17 41 -36 13 -29 -25 7 -71 44 -55 44 7 0
26 -7 42 -15z"/>
<path d="M10356 5778 c-3 -13 -8 -36 -11 -53 -4 -16 -8 -48 -10 -70 -3 -33 -3
-34 3 -10 7 30 8 30 82 33 85 2 112 -7 90 -32 -22 -28 -2 -31 45 -8 64 31 88
29 102 -8 7 -19 18 -30 31 -30 11 0 25 -7 32 -16 11 -13 30 -14 115 -8 104 7
145 -2 145 -30 0 -33 35 -45 148 -50 71 -4 123 -11 142 -21 16 -8 35 -15 42
-15 7 1 -5 11 -27 22 -31 17 -61 23 -140 25 -128 5 -145 9 -145 33 0 38 -37
50 -150 50 -115 0 -177 19 -192 60 -9 25 -56 27 -98 5 -29 -15 -30 -15 -27 7
2 22 -2 23 -83 28 -73 4 -80 6 -48 13 53 11 56 25 12 63 -47 40 -52 41 -58 12z
m34 -8 c0 -6 11 -15 25 -20 36 -14 31 -30 -10 -30 -37 0 -52 17 -41 45 6 17
26 20 26 5z"/>
<path d="M8420 5781 c0 -6 6 -13 13 -18 7 -5 -5 -10 -33 -13 -42 -5 -45 -7
-48 -37 -3 -28 1 -34 37 -52 45 -24 46 -25 56 -68 5 -26 3 -33 -9 -33 -9 0
-16 12 -18 33 -3 28 -10 35 -58 58 -30 15 -64 37 -76 48 -18 20 -22 20 -33 7
-11 -13 -10 -17 3 -22 27 -10 18 -27 -11 -20 -21 5 -24 4 -13 -4 8 -6 31 -8
50 -5 52 8 123 -30 130 -70 4 -22 11 -30 25 -30 16 0 20 6 18 33 -1 37 -34 79
-71 93 -17 6 -22 16 -20 32 3 19 10 22 57 25 29 2 73 -1 98 -6 53 -12 69 7 34
41 -11 12 -21 19 -21 15 0 -4 7 -14 16 -23 9 -9 14 -18 11 -22 -10 -10 -105
18 -111 33 -6 16 -26 19 -26 5z"/>
<path d="M10170 5780 c0 -5 7 -10 15 -10 8 0 15 5 15 10 0 6 -7 10 -15 10 -8
0 -15 -4 -15 -10z"/>
<path d="M2367 5757 c-40 -19 -47 -25 -42 -44 5 -21 3 -22 -20 -11 -46 21 -41
-3 10 -48 58 -52 89 -63 123 -43 42 24 49 45 25 71 -16 17 -20 31 -16 52 4 18
1 31 -8 37 -17 11 -15 11 -72 -14z m68 -30 c-5 -24 -2 -37 9 -46 26 -22 19
-48 -15 -60 -36 -12 -62 -2 -119 48 -34 30 -34 31 -7 21 35 -12 51 -5 38 18
-8 14 -3 20 27 34 60 27 74 24 67 -15z"/>
<path d="M8017 5764 c-8 -8 1 -24 14 -24 5 0 9 7 9 15 0 15 -12 20 -23 9z"/>
<path d="M2989 5744 c-29 -36 38 -67 108 -50 33 9 29 23 -17 46 -47 24 -73 25
-91 4z m97 -18 c18 -14 18 -15 -7 -21 -42 -10 -83 -2 -87 18 -3 14 4 17 35 17
22 0 48 -6 59 -14z"/>
<path d="M8190 5740 c0 -5 7 -10 15 -10 8 0 15 5 15 10 0 6 -7 10 -15 10 -8 0
-15 -4 -15 -10z"/>
<path d="M8003 5710 c-12 -5 -29 -22 -37 -37 -8 -15 -28 -43 -45 -61 -29 -31
-30 -35 -17 -60 8 -15 26 -40 41 -56 19 -21 23 -32 15 -40 -7 -7 -17 -7 -33 4
-53 33 -86 44 -143 48 -59 4 -62 3 -83 -27 -26 -36 -56 -43 -46 -11 8 27 -2
25 -77 -10 -75 -36 -85 -37 -93 -9 -5 14 -12 18 -23 13 -10 -3 -43 -15 -74
-25 -32 -10 -81 -34 -109 -54 -29 -20 -57 -34 -62 -32 -20 6 -18 25 4 30 19 5
20 8 9 22 -17 21 -64 45 -86 45 -14 0 -16 -7 -10 -42 13 -87 14 -83 -18 -81
-38 3 -94 -32 -102 -63 -7 -27 -28 -31 -68 -13 -14 7 -32 9 -42 5 -15 -6 -15
-9 6 -31 l23 -25 -22 0 c-23 0 -71 41 -71 61 0 7 -11 27 -26 46 -14 18 -23 33
-20 33 3 0 28 -9 56 -20 28 -11 66 -20 86 -20 45 0 100 23 113 48 15 28 -25
62 -124 107 -44 20 -93 43 -108 51 -16 8 -54 14 -85 14 -49 0 -54 2 -37 13 23
18 11 37 -24 37 -15 0 -32 5 -37 10 -12 12 -214 22 -214 10 0 -4 12 -11 27
-15 24 -6 25 -8 11 -16 -19 -10 -95 -1 -104 12 -8 14 -24 10 -24 -6 0 -8 7
-15 15 -15 8 0 15 -6 15 -14 0 -13 -67 -36 -107 -36 -10 0 -25 -5 -33 -10 -13
-9 -13 -12 3 -21 25 -14 21 -36 -8 -43 -13 -3 -36 -22 -51 -42 -15 -19 -39
-41 -53 -49 -14 -8 -20 -14 -14 -15 19 0 92 53 93 68 0 7 8 15 18 19 34 12 52
35 46 59 -6 22 -3 24 29 24 20 0 38 4 41 9 3 4 20 11 37 15 21 4 29 10 26 20
-4 11 3 13 32 9 30 -4 41 -1 52 14 16 23 71 40 67 21 -4 -14 54 -17 64 -3 5 6
12 5 20 -3 6 -6 22 -12 35 -12 26 0 31 -15 8 -24 -37 -14 -10 -26 59 -26 53 0
77 -4 86 -15 7 -8 31 -20 54 -26 54 -14 176 -86 176 -104 0 -19 -37 -42 -80
-50 -25 -4 -55 0 -98 15 -85 29 -102 22 -64 -27 17 -21 33 -48 37 -60 7 -27
70 -67 90 -59 20 7 19 33 -2 45 -32 18 -6 22 30 5 30 -14 39 -15 52 -4 8 7 15
18 15 25 0 24 51 55 91 55 46 0 56 20 38 80 -7 22 -10 43 -7 46 4 3 23 -3 44
-14 37 -19 37 -19 15 -31 -22 -12 -22 -13 -5 -32 23 -26 34 -24 85 13 40 29
156 77 187 78 6 0 12 -7 12 -15 0 -23 41 -18 104 14 44 22 56 25 54 12 -5 -28
32 -23 69 9 34 30 40 32 87 26 27 -3 73 -17 102 -32 85 -43 111 -15 49 53 -43
46 -43 61 -6 97 16 16 35 41 41 56 13 31 32 39 70 30 22 -5 25 -12 27 -56 1
-27 5 -78 9 -113 7 -70 -8 -162 -31 -181 -10 -9 -19 -8 -38 5 -23 15 -57 12
-57 -6 0 -5 18 -18 41 -29 l40 -21 35 22 c20 12 48 45 66 76 17 30 38 57 46
61 18 6 52 -32 52 -59 0 -19 28 -39 54 -39 9 0 16 7 16 15 0 8 -4 15 -10 15
-5 0 -16 15 -24 33 -17 43 -61 77 -95 76 -21 -1 -19 -3 12 -11 26 -7 45 -20
58 -42 20 -33 26 -71 9 -61 -5 3 -10 14 -10 24 0 24 -44 64 -67 59 -10 -2 -30
-25 -44 -51 -14 -27 -34 -56 -44 -65 -17 -16 -17 -16 -9 13 8 28 11 195 5 240
-2 11 0 34 4 52 6 28 4 33 -23 47 -35 18 -38 18 -69 6z m23 -369 c5 -5 18 -11
29 -13 16 -3 17 -5 4 -10 -9 -3 -33 2 -55 12 -35 16 -36 18 -13 19 14 1 29 -3
35 -8z"/>
<path d="M8132 5657 c-18 -34 -21 -51 -16 -90 4 -26 12 -52 20 -57 13 -12 12
3 -8 67 -7 26 -6 39 8 63 10 16 21 30 24 30 3 0 11 -14 18 -30 14 -30 57 -60
87 -60 24 0 17 23 -16 48 -37 30 -38 21 -2 -13 21 -19 24 -25 12 -25 -26 0
-62 34 -74 71 -6 18 -16 34 -21 36 -5 2 -19 -16 -32 -40z"/>
<path d="M4767 5624 c-8 -8 1 -24 14 -24 5 0 9 7 9 15 0 15 -12 20 -23 9z"/>
<path d="M10062 5594 c-12 -20 -17 -34 -10 -32 7 2 17 14 22 25 9 19 17 20 85
18 42 -2 83 -5 91 -6 35 -5 71 1 64 12 -4 6 -20 8 -40 4 -19 -3 -43 -1 -54 5
-15 8 -30 8 -55 -1 -27 -10 -38 -10 -47 -1 -19 19 -31 14 -56 -24z"/>
<path d="M11632 5605 c-19 -8 -32 -20 -30 -27 6 -17 82 -22 105 -8 14 8 6 9
-34 4 -57 -6 -76 10 -25 22 15 3 32 7 38 9 7 2 21 -3 33 -11 11 -8 21 -11 21
-5 0 13 -33 31 -57 31 -10 -1 -33 -7 -51 -15z"/>
<path d="M11796 5613 c-11 -11 -6 -23 9 -23 8 0 15 4 15 9 0 13 -16 22 -24 14z"/>
<path d="M1397 5584 c-8 -8 1 -24 14 -24 5 0 9 7 9 15 0 15 -12 20 -23 9z"/>
<path d="M5420 5575 c0 -9 5 -15 11 -13 6 2 11 8 11 13 0 5 -5 11 -11 13 -6 2
-11 -4 -11 -13z"/>
<path d="M5380 5550 c0 -5 5 -10 10 -10 6 0 10 5 10 10 0 6 -4 10 -10 10 -5 0
-10 -4 -10 -10z"/>
<path d="M7630 5545 c0 -22 48 -51 62 -37 9 9 7 17 -7 32 -21 23 -55 27 -55 5z
m46 -10 c16 -12 16 -14 3 -15 -9 0 -22 7 -29 15 -16 19 0 19 26 0z"/>
<path d="M6290 5535 c0 -9 5 -15 11 -13 6 2 11 8 11 13 0 5 -5 11 -11 13 -6 2
-11 -4 -11 -13z"/>
<path d="M11331 5501 c-1 -28 3 -41 8 -35 6 5 6 24 1 44 l-8 35 -1 -44z"/>
<path d="M11365 5531 c11 -5 63 -13 115 -20 193 -22 350 -100 350 -172 0 -25
26 -24 33 1 3 11 13 20 24 20 26 -1 103 -37 103 -49 0 -6 -17 -19 -37 -28 -27
-13 -41 -27 -47 -49 l-10 -32 -40 26 c-23 14 -51 35 -63 45 -18 16 -27 18 -53
9 -28 -10 -32 -9 -40 13 -13 33 -28 32 -36 -2 -12 -57 -11 -56 -69 -49 -68 8
-78 -6 -27 -38 39 -24 69 -77 56 -98 -3 -5 -17 -7 -31 -3 -37 9 -121 -19 -191
-65 -66 -42 -81 -47 -99 -29 -15 15 -128 2 -144 -17 -6 -8 -22 -14 -34 -14
-33 0 -60 -46 -58 -99 1 -24 6 -48 12 -54 16 -16 14 -27 -4 -27 -18 0 -37 -43
-29 -65 4 -10 0 -15 -13 -15 -23 0 -56 -32 -58 -58 -1 -9 -22 -38 -48 -64
l-45 -47 -12 32 c-16 45 -24 148 -15 193 5 31 23 54 95 122 49 45 107 96 129
112 43 32 78 87 64 101 -11 11 -53 -17 -53 -36 0 -8 -8 -19 -17 -24 -10 -6
-13 -11 -6 -11 6 0 23 15 37 33 19 24 26 28 26 14 0 -10 -11 -29 -25 -42 -25
-26 -55 -33 -55 -13 0 6 -9 3 -20 -7 -25 -23 -39 -11 -21 17 14 23 2 38 -32
38 -48 0 -167 -86 -167 -121 0 -16 -7 -19 -40 -19 -22 0 -57 7 -76 15 -27 11
-41 12 -56 4 -23 -12 -108 -15 -153 -5 -25 6 -41 0 -90 -32 -72 -46 -215 -178
-215 -198 0 -7 9 -18 19 -24 32 -16 38 -11 11 10 l-25 19 60 57 c72 69 161
136 204 154 26 10 36 10 56 0 16 -9 40 -10 77 -6 63 9 80 9 176 0 l73 -6 -6
25 c-6 22 0 30 37 57 45 33 64 42 111 54 27 6 27 6 21 -34 -7 -43 -4 -46 27
-29 36 19 5 -24 -52 -73 -134 -113 -143 -131 -128 -250 10 -81 27 -141 39
-136 24 10 110 99 110 115 0 26 20 51 45 55 15 2 21 12 23 37 2 23 9 35 23 38
16 5 18 11 13 42 -4 20 -11 44 -16 54 -12 23 -1 39 22 32 27 -9 35 14 8 24
-21 7 -18 10 32 34 77 35 134 43 166 23 23 -16 26 -15 69 14 77 53 145 80 203
80 38 0 54 4 58 15 10 24 -16 73 -55 105 -40 33 -39 34 7 21 48 -14 79 1 87
41 8 32 8 32 18 11 11 -26 15 -27 51 -14 18 7 28 6 36 -4 6 -7 25 -20 43 -29
18 -9 42 -23 54 -32 21 -15 23 -14 36 18 8 20 28 41 50 53 50 27 48 51 -5 74
-79 34 -85 35 -102 4 -14 -25 -15 -26 -16 -6 -1 49 -97 114 -225 152 -91 27
-306 54 -250 32z"/>
<path d="M3870 5496 c0 -7 7 -19 15 -26 19 -15 47 4 38 26 -7 18 -53 19 -53 0z
m40 -6 c0 -5 -4 -10 -9 -10 -6 0 -13 5 -16 10 -3 6 1 10 9 10 9 0 16 -4 16
-10z"/>
<path d="M7300 5496 c-7 -9 -10 -23 -6 -31 4 -12 10 -13 31 -3 28 12 30 41 4
46 -9 1 -22 -4 -29 -12z m38 -8 c-3 -7 -13 -15 -24 -17 -16 -3 -17 -1 -5 13
16 19 34 21 29 4z"/>
<path d="M3016 5493 c-11 -11 -6 -23 9 -23 8 0 15 4 15 9 0 13 -16 22 -24 14z"/>
<path d="M3097 5463 c-4 -3 -2 -12 4 -19 7 -9 7 -19 -1 -34 -6 -11 -8 -25 -5
-30 10 -16 51 -12 66 6 12 14 10 19 -14 38 -15 12 -27 27 -27 34 0 13 -13 16
-23 5z m53 -63 c0 -13 -7 -20 -18 -20 -26 0 -34 11 -21 27 17 20 39 16 39 -7z"/>
<path d="M6167 5464 c-8 -8 1 -24 14 -24 5 0 9 7 9 15 0 15 -12 20 -23 9z"/>
<path d="M3027 5434 c-8 -8 1 -24 14 -24 5 0 9 7 9 15 0 15 -12 20 -23 9z"/>
<path d="M6112 5429 c2 -6 8 -10 13 -10 5 0 11 4 13 10 2 6 -4 11 -13 11 -9 0
-15 -5 -13 -11z"/>
<path d="M5085 5327 c-53 -7 -75 -14 -91 -33 -12 -13 -43 -29 -68 -35 -25 -6
-46 -15 -46 -20 0 -9 42 -29 61 -29 21 0 -3 20 -24 21 -13 0 0 8 32 21 33 12
55 28 58 39 3 12 14 19 28 19 12 0 50 3 84 6 47 5 61 4 61 -6 0 -8 7 -22 16
-32 23 -25 8 -40 -72 -72 -68 -27 -122 -33 -155 -16 -12 7 -19 7 -19 1 0 -18
66 -30 111 -20 51 12 143 54 159 74 10 12 7 21 -15 47 -37 45 -40 46 -120 35z"/>
<path d="M4886 5301 c-17 -18 -16 -20 3 -26 35 -11 80 10 81 38 0 16 -67 6
-84 -12z m70 0 c-8 -12 -55 -20 -61 -11 -6 10 12 18 43 19 13 1 21 -3 18 -8z"/>
<path d="M6081 5296 c-7 -8 -22 -16 -34 -18 -23 -3 -23 -6 -11 -82 l6 -39 -46
7 c-40 6 -46 5 -46 -11 0 -13 2 -15 9 -5 6 11 13 11 36 0 25 -11 29 -10 46 11
23 28 24 40 3 69 -17 25 -11 42 15 42 19 0 48 27 39 35 -3 3 -11 -1 -17 -9z"/>
<path d="M6435 5288 c-28 -16 -44 -39 -45 -65 0 -14 -15 -32 -42 -51 -61 -42
-79 -65 -85 -110 -4 -30 0 -46 16 -68 23 -31 19 -74 -6 -74 -20 0 -46 -66 -36
-93 6 -18 9 -13 13 23 4 34 10 47 27 55 27 11 39 62 20 84 -36 42 -25 119 21
148 44 27 82 66 82 83 0 33 30 60 66 60 49 0 44 -24 -22 -100 -55 -65 -55 -65
-51 -123 2 -36 9 -64 20 -74 16 -16 21 -16 85 1 72 18 143 19 149 0 2 -7 -26
-14 -79 -18 -45 -4 -88 -12 -95 -18 -15 -12 -17 -54 -3 -63 6 -3 10 -20 10
-37 l0 -31 -25 23 -25 23 -25 -23 c-16 -15 -25 -34 -25 -55 0 -17 -7 -41 -16
-54 -14 -20 -22 -22 -63 -16 -38 5 -55 1 -96 -19 l-50 -26 -15 21 c-14 17 -20
19 -45 9 -58 -22 -94 6 -74 56 18 50 -16 85 -49 52 -13 -13 -14 -69 -2 -108 6
-19 8 -9 9 37 1 60 13 85 32 66 6 -6 5 -22 -2 -41 -9 -27 -8 -37 6 -58 16 -24
21 -26 65 -20 38 5 49 3 54 -9 8 -21 29 -19 88 11 42 21 55 24 75 15 28 -13
46 -5 82 33 17 18 22 32 17 49 -3 14 0 32 8 43 14 18 16 18 44 2 22 -13 32
-14 40 -6 16 16 15 43 -3 58 -18 15 -20 44 -2 57 6 6 47 13 91 16 87 6 113 20
82 43 -26 19 -99 18 -166 -2 -53 -16 -55 -16 -72 6 -11 14 -18 39 -18 66 0 38
6 50 60 111 33 37 60 73 60 80 0 13 -38 43 -55 43 -5 0 -19 -6 -30 -12z"/>
<path d="M5990 5195 c0 -9 5 -15 11 -13 6 2 11 8 11 13 0 5 -5 11 -11 13 -6 2
-11 -4 -11 -13z"/>
<path d="M0 5155 c0 -18 43 -37 65 -29 21 8 19 21 -4 34 -29 15 -61 12 -61 -5z
m69 -11 c2 -2 -10 -4 -27 -4 -18 0 -32 5 -32 10 0 9 47 4 59 -6z"/>
<path d="M3110 5155 c0 -9 5 -15 11 -13 6 2 11 8 11 13 0 5 -5 11 -11 13 -6 2
-11 -4 -11 -13z"/>
<path d="M3056 5153 c-11 -11 -6 -23 9 -23 8 0 15 4 15 9 0 13 -16 22 -24 14z"/>
<path d="M5908 5114 c-15 -8 -32 -23 -38 -34 -13 -24 -3 -168 13 -187 16 -22
62 -14 105 17 23 17 44 30 46 30 2 0 17 -37 31 -82 15 -46 33 -89 41 -97 14
-15 24 -12 114 28 23 10 22 11 -10 5 -19 -3 -45 -12 -58 -20 -28 -18 -36 -14
-52 28 -6 18 -23 61 -37 94 l-24 62 -51 -34 c-85 -57 -102 -47 -112 68 l-7 77
42 31 c44 32 43 39 -3 14z"/>
<path d="M2892 5108 c-19 -19 -14 -30 11 -26 12 2 22 9 22 17 0 19 -18 24 -33
9z"/>
<path d="M3001 5102 c-11 -21 1 -48 18 -38 13 9 15 43 2 51 -6 3 -14 -3 -20
-13z"/>
<path d="M5430 5083 c0 -10 -3 -29 -7 -42 -4 -17 -2 -22 7 -19 7 2 15 11 16
19 2 7 6 24 10 37 5 16 2 22 -10 22 -9 0 -16 -8 -16 -17z"/>
<path d="M6685 5056 c-19 -14 -19 -15 -2 -51 16 -34 20 -36 50 -30 58 13 61
23 18 66 -33 33 -40 34 -66 15z m71 -31 c20 -30 18 -32 -21 -37 -23 -2 -32 2
-42 21 -15 31 -9 41 22 41 15 0 31 -10 41 -25z"/>
<path d="M632 5038 c-5 -7 -21 -36 -36 -63 -36 -71 -96 -126 -201 -185 -49
-27 -82 -50 -73 -50 11 0 15 -5 12 -15 -4 -10 0 -15 13 -15 28 0 35 11 16 25
-18 14 -18 14 77 68 59 33 137 102 145 128 12 36 66 109 81 109 10 0 8 -6 -7
-21 -11 -11 -19 -30 -17 -42 3 -23 8 -24 96 -11 39 6 60 24 27 24 -8 0 -15 9
-15 20 0 26 23 26 58 0 15 -11 68 -29 118 -39 50 -11 119 -31 152 -45 34 -14
71 -25 84 -23 18 1 27 -7 41 -35 20 -41 15 -67 -9 -47 -11 9 -18 9 -26 1 -8
-8 -4 -14 16 -22 37 -14 46 -13 46 6 0 18 1 17 53 -15 41 -26 45 -35 20 -50
-10 -5 -15 -13 -11 -17 4 -4 14 -1 22 5 19 16 30 -2 21 -37 -4 -15 -7 -29 -7
-32 0 -3 -4 -13 -9 -22 -6 -10 -5 -19 1 -23 6 -3 13 1 16 9 7 18 30 21 40 5 3
-6 1 -16 -5 -22 -22 -22 -12 -37 20 -30 29 5 30 5 23 -23 -4 -16 -11 -35 -17
-42 -7 -9 -4 -19 9 -34 22 -24 103 -78 118 -78 5 0 -10 13 -35 28 -24 16 -50
36 -58 46 -13 16 -12 17 15 11 16 -4 39 -19 51 -33 12 -14 25 -24 28 -20 3 3
-11 20 -31 38 -26 22 -44 30 -61 27 -13 -2 -22 0 -21 5 2 5 7 9 11 9 4 -1 16
-1 27 -1 28 0 91 -60 93 -87 2 -27 17 -31 17 -5 1 15 2 15 15 -2 8 -11 15 -30
15 -43 0 -20 -2 -22 -20 -11 -10 7 -22 9 -27 5 -4 -4 -11 -79 -16 -166 -8
-149 -8 -161 12 -202 15 -33 18 -36 13 -14 -10 43 -9 362 2 372 5 4 11 2 13
-4 7 -19 30 -15 36 6 6 25 -7 47 -62 104 -28 29 -60 51 -83 58 -34 9 -37 12
-32 38 4 21 1 30 -11 35 -9 3 -21 4 -26 0 -5 -3 -9 -1 -9 5 0 5 5 13 11 17 7
4 1 15 -17 29 -23 18 -28 30 -26 53 5 43 -22 88 -64 108 -23 11 -47 35 -66 66
-26 42 -34 48 -63 48 -18 0 -53 9 -78 20 -26 11 -88 29 -139 40 -57 13 -106
30 -129 46 -31 21 -41 24 -58 14 -12 -6 -21 -19 -21 -30 0 -22 -36 -50 -63
-50 -14 0 -17 5 -11 23 3 12 13 29 20 38 8 9 11 19 7 22 -11 11 -40 8 -51 -5z"/>
<path d="M5620 5001 c0 -12 6 -21 16 -21 9 0 14 7 12 17 -5 25 -28 28 -28 4z"/>
<path d="M3396 5003 c-11 -11 -6 -23 9 -23 8 0 15 4 15 9 0 13 -16 22 -24 14z"/>
<path d="M6330 4995 c0 -9 5 -15 11 -13 6 2 11 8 11 13 0 5 -5 11 -11 13 -6 2
-11 -4 -11 -13z"/>
<path d="M132 4979 c2 -6 8 -10 13 -10 5 0 11 4 13 10 2 6 -4 11 -13 11 -9 0
-15 -5 -13 -11z"/>
<path d="M5536 4920 c-39 -35 -71 -94 -59 -113 4 -6 6 -20 4 -30 -1 -10 5 -27
14 -37 12 -13 15 -28 11 -44 -3 -14 -2 -27 3 -30 5 -3 12 5 15 19 8 31 22 32
29 4 4 -14 -2 -28 -18 -43 -13 -12 -27 -34 -30 -48 -6 -22 -3 -26 22 -33 l28
-7 -37 -19 c-37 -19 -46 -33 -30 -43 5 -3 53 1 108 9 79 11 102 18 116 35 26
32 23 69 -6 80 -14 5 -26 20 -31 37 -7 29 -41 80 -77 112 -19 18 -19 20 -3 45
20 31 11 49 -21 43 -29 -5 -30 -1 -4 38 39 59 21 72 -34 25z m24 -20 c-27 -38
-21 -63 15 -54 l26 6 -16 -33 -16 -34 40 -43 c22 -23 46 -60 52 -83 9 -27 21
-44 36 -50 29 -11 29 -34 0 -63 -19 -19 -37 -24 -107 -29 -47 -3 -87 -4 -89
-1 -2 2 10 9 27 15 43 15 49 38 12 45 -26 6 -28 9 -18 28 6 11 19 27 30 34 26
19 22 82 -6 82 -47 0 -73 97 -40 149 18 27 66 72 73 66 2 -2 -7 -18 -19 -35z"/>
<path d="M282 4899 c2 -6 8 -10 13 -10 5 0 11 4 13 10 2 6 -4 11 -13 11 -9 0
-15 -5 -13 -11z"/>
<path d="M5432 4899 c2 -6 8 -10 13 -10 5 0 11 4 13 10 2 6 -4 11 -13 11 -9 0
-15 -5 -13 -11z"/>
<path d="M6412 4899 c2 -6 8 -10 13 -10 5 0 11 4 13 10 2 6 -4 11 -13 11 -9 0
-15 -5 -13 -11z"/>
<path d="M576 4869 c-28 -22 -35 -49 -13 -49 14 0 67 50 67 63 0 14 -28 7 -54
-14z m24 -14 c-13 -14 -28 -25 -33 -25 -6 0 0 11 13 25 13 14 28 25 33 25 6 0
0 -11 -13 -25z"/>
<path d="M1140 4855 c0 -8 5 -15 10 -15 6 0 10 7 10 15 0 8 -4 15 -10 15 -5 0
-10 -7 -10 -15z"/>
<path d="M5436 4853 c-11 -11 -6 -23 9 -23 8 0 15 4 15 9 0 13 -16 22 -24 14z"/>
<path d="M6274 4845 c-9 -23 10 -40 25 -22 9 11 8 17 -4 27 -12 10 -16 9 -21
-5z"/>
<path d="M26 4813 c-11 -11 -6 -23 9 -23 8 0 15 4 15 9 0 13 -16 22 -24 14z"/>
<path d="M525 4791 c-6 -11 9 -23 19 -14 9 9 7 23 -3 23 -6 0 -12 -4 -16 -9z"/>
<path d="M3000 4775 c0 -9 5 -15 11 -13 6 2 11 8 11 13 0 5 -5 11 -11 13 -6 2
-11 -4 -11 -13z"/>
<path d="M1234 4756 c-6 -17 2 -36 17 -36 12 0 12 37 -1 45 -6 3 -13 -1 -16
-9z"/>
<path d="M500 4745 c0 -9 5 -15 11 -13 6 2 11 8 11 13 0 5 -5 11 -11 13 -6 2
-11 -4 -11 -13z"/>
<path d="M11170 4745 c0 -8 5 -15 10 -15 6 0 10 7 10 15 0 8 -4 15 -10 15 -5
0 -10 -7 -10 -15z"/>
<path d="M5397 4732 c-10 -10 -17 -24 -17 -30 0 -6 -9 -14 -21 -17 -14 -5 -19
-13 -16 -26 3 -11 0 -32 -6 -48 -8 -23 -8 -33 2 -45 12 -14 18 -13 61 9 59 30
80 58 80 107 0 31 -5 40 -30 53 -36 19 -34 19 -53 -3z m54 -12 c21 -12 25 -46
8 -83 -11 -25 -103 -76 -115 -64 -4 3 -1 20 6 36 7 17 9 38 6 47 -4 11 0 18
14 21 11 3 20 13 20 22 0 32 24 40 61 21z"/>
<path d="M6046 4743 c-12 -12 -6 -33 9 -33 8 0 15 6 15 14 0 17 -14 28 -24 19z"/>
<path d="M6156 4733 c-11 -11 -6 -23 9 -23 8 0 15 4 15 9 0 13 -16 22 -24 14z"/>
<path d="M212 4709 c2 -6 8 -10 13 -10 5 0 11 4 13 10 2 6 -4 11 -13 11 -9 0
-15 -5 -13 -11z"/>
<path d="M10410 4705 c0 -9 -7 -30 -16 -48 -15 -29 -17 -30 -24 -11 -15 39
-35 47 -92 35 l-53 -10 52 4 c45 3 55 1 68 -18 46 -65 -8 -245 -116 -389 -63
-85 -104 -116 -130 -100 -10 7 -23 12 -27 12 -5 0 -43 -38 -85 -84 l-76 -83
29 -74 c37 -93 37 -105 0 -124 -44 -23 -50 -19 -50 30 0 36 -6 52 -26 72 -18
18 -24 32 -20 49 4 16 0 27 -16 38 -33 23 -66 19 -93 -10 -28 -31 -35 -12 -9
25 12 17 13 26 5 34 -15 15 -86 -22 -127 -65 l-29 -30 28 -24 c23 -20 39 -24
90 -24 l62 -1 -37 -19 c-20 -11 -46 -34 -58 -50 l-22 -31 35 -57 36 -57 -21
-16 c-22 -17 -17 -39 9 -39 14 0 14 -2 -1 -19 -16 -17 -15 -19 6 -33 l22 -15
-22 -34 c-12 -19 -33 -55 -47 -81 -52 -97 -111 -147 -203 -168 -28 -7 -55 -16
-58 -21 -3 -5 -16 -9 -29 -9 -13 0 -28 -8 -34 -17 -8 -15 -13 -16 -30 -5 -12
6 -27 12 -35 12 -14 0 -86 -74 -86 -88 0 -4 20 -37 45 -72 50 -72 61 -100 70
-185 l6 -60 -61 -50 c-75 -61 -80 -63 -80 -32 0 14 -8 33 -17 43 -10 9 -25 31
-33 48 -11 22 -25 33 -53 39 -49 12 -63 0 -83 -70 -15 -53 -15 -55 5 -77 12
-12 21 -28 21 -34 0 -7 15 -29 34 -49 45 -52 66 -95 73 -155 5 -41 3 -50 -8
-46 -24 8 -78 87 -89 131 -7 23 -22 63 -36 88 -19 38 -24 62 -24 125 0 44 -7
111 -16 149 -8 39 -18 80 -20 93 -5 27 -18 28 -51 2 -41 -32 -53 -26 -53 28 0
48 -9 70 -69 160 -37 56 -43 59 -81 37 -14 -8 -39 -14 -56 -15 -26 0 -39 -10
-78 -60 -27 -33 -80 -88 -119 -122 -40 -34 -75 -66 -79 -72 -4 -6 -8 -34 -8
-61 0 -59 -24 -160 -47 -194 -8 -13 -10 -20 -4 -17 27 17 52 90 60 174 l8 87
128 128 c99 97 135 127 155 127 14 0 35 7 46 15 10 8 22 15 26 15 3 0 26 -28
49 -62 37 -54 44 -73 49 -128 4 -59 7 -65 29 -68 13 -2 36 6 52 17 l28 21 6
-38 c3 -20 12 -58 20 -83 9 -27 15 -84 15 -132 0 -72 4 -93 25 -133 14 -26 25
-57 25 -69 0 -29 67 -130 96 -145 33 -18 47 -4 39 39 -10 52 -40 116 -75 159
-16 20 -30 42 -30 48 0 6 -10 23 -21 38 -22 28 -22 61 0 118 9 24 14 27 43 22
18 -4 38 -13 43 -21 6 -8 22 -31 38 -50 15 -20 27 -46 27 -59 0 -36 20 -29 93
33 66 57 67 58 67 108 0 73 -14 113 -65 186 -25 35 -45 71 -45 80 0 16 59 79
75 79 4 0 17 -8 28 -17 17 -16 19 -16 28 -2 8 16 80 45 165 68 56 15 146 112
199 215 37 72 39 78 22 90 -16 12 -16 15 -1 27 14 11 13 15 -8 31 -19 15 -20
18 -5 18 25 0 21 22 -14 79 -40 64 -35 91 23 123 62 34 60 48 -6 48 -64 0
-106 16 -106 40 0 18 106 98 116 87 3 -3 0 -21 -7 -41 -17 -47 -7 -54 31 -22
48 40 99 31 87 -15 -5 -17 1 -31 19 -50 17 -18 26 -42 31 -77 6 -57 13 -61 68
-38 43 18 45 40 10 132 -14 36 -22 72 -17 79 4 7 34 43 66 80 55 63 61 66 92
60 30 -5 39 -1 79 36 50 47 159 202 168 240 3 13 11 50 17 82 6 31 15 57 20
57 10 0 19 -56 23 -145 3 -53 3 -51 5 19 1 43 -3 96 -10 118 -10 33 -9 47 7
91 10 29 23 55 29 59 7 5 4 8 -6 8 -10 0 -18 -7 -18 -15z"/>
<path d="M11237 4704 c-8 -8 1 -24 14 -24 5 0 9 7 9 15 0 15 -12 20 -23 9z"/>
<path d="M124 4689 c-10 -17 13 -36 27 -22 12 12 4 33 -11 33 -5 0 -12 -5 -16
-11z"/>
<path d="M1232 4674 c4 -21 22 -23 26 -1 2 10 -3 17 -13 17 -10 0 -15 -6 -13
-16z"/>
<path d="M10431 4649 c-1 -49 18 -148 36 -183 15 -28 15 -29 -11 -22 -25 6
-26 5 -26 -37 0 -24 5 -48 11 -54 13 -13 5 -43 -10 -43 -5 0 -12 7 -14 15 -4
11 -4 10 -3 -2 1 -11 9 -18 21 -18 21 0 22 10 9 89 -6 36 -5 39 15 33 30 -8
35 8 16 56 -8 23 -22 78 -29 122 -9 52 -14 68 -15 44z"/>
<path d="M5866 4636 c-21 -13 -43 -35 -50 -47 -6 -13 -22 -29 -35 -35 -12 -6
-37 -25 -54 -42 -37 -35 -68 -52 -94 -52 -10 0 -24 -9 -30 -19 -7 -11 -25 -21
-40 -24 -24 -3 -22 -4 8 -6 29 -1 38 3 42 19 3 13 14 20 31 20 16 0 44 16 74
44 27 24 61 46 76 50 18 4 28 15 32 34 4 20 18 33 52 49 26 13 58 24 72 26 18
3 15 5 -10 5 -21 1 -51 -8 -74 -22z"/>
<path d="M62 4639 c2 -6 8 -10 13 -10 5 0 11 4 13 10 2 6 -4 11 -13 11 -9 0
-15 -5 -13 -11z"/>
<path d="M2930 4621 c0 -22 25 -39 38 -27 8 8 -10 38 -26 44 -7 2 -12 -6 -12
-17z m24 -6 c3 -8 1 -15 -4 -15 -6 0 -10 7 -10 15 0 8 2 15 4 15 2 0 6 -7 10
-15z"/>
<path d="M11400 4625 c0 -9 5 -15 11 -13 6 2 11 8 11 13 0 5 -5 11 -11 13 -6
2 -11 -4 -11 -13z"/>
<path d="M1250 4604 c0 -29 26 -84 40 -84 14 0 13 43 -1 74 -17 36 -39 42 -39
10z m40 -53 c0 -25 -18 1 -25 34 l-6 30 15 -25 c8 -14 15 -32 16 -39z"/>
<path d="M10824 4519 c-10 -17 13 -36 27 -22 12 12 4 33 -11 33 -5 0 -12 -5
-16 -11z"/>
<path d="M3510 4491 c-55 -8 -81 -22 -136 -73 -64 -59 -58 -96 5 -42 17 14 53
34 79 45 51 19 48 25 -6 10 -18 -6 -50 -24 -72 -41 -51 -40 -52 -23 -2 22 49
44 79 55 192 72 81 11 87 13 40 13 -30 0 -75 -3 -100 -6z"/>
<path d="M3740 4454 c-40 -37 -48 -50 -40 -64 14 -27 35 -30 82 -15 l43 13
-57 -5 c-68 -7 -75 6 -32 56 30 36 44 39 44 10 0 -17 4 -20 28 -15 17 4 35 1
47 -8 19 -13 19 -16 3 -48 -16 -31 -17 -32 -18 -8 -1 23 -2 23 -9 5 -4 -11 -6
-28 -3 -38 4 -16 6 -16 21 -3 10 9 26 13 39 9 25 -6 31 14 7 23 -8 4 -15 16
-15 29 0 29 -30 55 -64 55 -26 0 -26 0 -10 25 28 44 -10 31 -66 -21z"/>
<path d="M2702 4468 c2 -13 10 -23 18 -23 8 0 16 10 18 23 3 17 -2 22 -18 22
-16 0 -21 -5 -18 -22z m28 2 c0 -5 -4 -10 -10 -10 -5 0 -10 5 -10 10 0 6 5 10
10 10 6 0 10 -4 10 -10z"/>
<path d="M3540 4450 c0 -13 34 -30 59 -30 27 0 27 27 0 35 -11 4 -23 4 -26 1
-4 -3 1 -6 10 -6 9 0 19 -4 22 -10 10 -16 -22 -12 -39 5 -17 17 -26 19 -26 5z"/>
<path d="M10802 4449 c2 -6 8 -10 13 -10 5 0 11 4 13 10 2 6 -4 11 -13 11 -9
0 -15 -5 -13 -11z"/>
<path d="M3513 4414 c1 -11 -7 -20 -23 -24 -14 -4 -24 -13 -22 -21 6 -24 44
-59 65 -59 10 0 26 -9 36 -21 l17 -21 31 26 c32 27 53 33 53 16 0 -5 -5 -10
-11 -10 -6 0 -23 -9 -37 -20 -32 -25 -132 -90 -138 -90 -14 0 1 28 32 56 33
32 34 34 12 34 -32 0 -168 -58 -196 -83 -18 -17 -22 -30 -20 -62 3 -38 2 -40
-29 -43 -39 -4 -101 -68 -110 -114 l-6 -31 -14 27 c-22 42 -34 21 -31 -57 3
-80 13 -63 -109 -199 -35 -38 -63 -73 -63 -77 0 -4 11 -50 25 -102 29 -109 31
-139 10 -139 -20 0 -40 34 -59 101 -21 74 -42 91 -122 101 -79 9 -108 -2 -101
-38 5 -29 -8 -31 -98 -8 l-64 16 -51 -28 c-28 -15 -56 -37 -62 -48 -6 -10 -11
-71 -12 -135 -1 -102 2 -121 21 -158 41 -76 103 -101 178 -73 26 10 29 14 40
63 4 19 16 33 38 42 27 12 28 14 10 15 -29 0 -63 -33 -63 -62 0 -36 -13 -47
-61 -54 -120 -16 -172 97 -144 314 6 47 11 56 46 79 33 22 46 25 86 19 27 -3
74 -9 107 -13 58 -6 58 -6 46 17 -19 36 -1 43 84 35 85 -8 90 -12 115 -106 14
-49 55 -103 74 -96 20 6 19 61 -2 145 -12 44 -21 90 -21 102 0 20 129 179 152
188 4 2 8 11 8 21 0 9 5 22 10 27 8 8 8 19 0 38 -5 15 -10 39 -9 54 0 26 1 26
9 5 14 -35 27 -28 51 27 24 56 60 90 93 90 12 0 30 6 40 13 16 12 17 16 5 35
-12 19 -12 26 1 48 13 23 85 60 155 82 19 5 19 5 2 -21 -18 -28 -23 -57 -8
-57 10 0 112 59 151 87 14 10 29 18 35 18 16 0 17 31 2 44 -12 9 -21 6 -45
-14 -36 -30 -48 -31 -55 -6 -3 13 -11 18 -24 15 -11 -3 -27 4 -42 19 -22 25
-22 25 -3 31 24 8 37 35 23 49 -6 6 -9 2 -8 -9z"/>
<path d="M2680 4384 c-30 -19 -55 -40 -55 -47 0 -8 27 -14 82 -17 46 -3 88
-11 95 -17 9 -10 9 -13 -3 -13 -35 0 -54 -38 -51 -103 5 -101 44 -119 55 -25
10 78 65 139 75 83 4 -23 62 -86 72 -80 4 3 10 18 13 35 4 18 13 30 22 30 11
0 15 7 13 22 -3 22 -34 38 -100 52 -18 4 -38 21 -55 47 -26 39 -69 70 -95 68
-7 -1 -38 -16 -68 -35z m108 10 c13 -9 34 -33 47 -54 21 -33 34 -42 87 -57 57
-17 90 -43 54 -43 -10 0 -19 -12 -22 -30 -4 -16 -8 -30 -10 -30 -12 0 -53 53
-56 72 -4 29 -38 35 -61 10 -9 -10 -24 -49 -34 -86 -19 -77 -33 -71 -33 15 0
57 12 78 53 92 46 17 -9 47 -100 55 l-63 5 48 33 c54 39 59 40 90 18z"/>
<path d="M10762 4409 c2 -6 8 -10 13 -10 5 0 11 4 13 10 2 6 -4 11 -13 11 -9
0 -15 -5 -13 -11z"/>
<path d="M5530 4391 c0 -6 11 -17 25 -23 49 -22 82 -105 63 -159 l-10 -30
-107 6 c-59 4 -112 2 -119 -3 -9 -6 -15 -35 -16 -83 -2 -41 -6 -87 -10 -104
-8 -37 24 -95 53 -95 10 0 30 -9 45 -21 l26 -20 66 22 c83 28 121 59 130 105
4 23 16 41 33 51 47 29 80 65 86 93 5 24 12 28 55 34 27 4 65 13 85 22 33 14
39 14 61 -1 13 -8 24 -19 24 -24 0 -19 112 -120 139 -126 34 -7 58 -50 40 -71
-6 -8 -26 -15 -43 -15 -22 -1 -25 -3 -9 -6 30 -6 49 -31 35 -45 -14 -14 -69 8
-75 30 -4 15 -5 15 -6 -1 -1 -21 59 -53 83 -44 9 4 16 16 16 27 0 11 7 20 15
20 21 0 38 38 31 71 -6 31 2 37 22 17 9 -9 13 -7 18 5 9 23 0 33 -64 67 -41
22 -65 44 -85 77 -30 49 -46 103 -30 103 5 0 49 -36 98 -79 65 -58 96 -94 114
-133 15 -30 36 -66 49 -82 12 -16 22 -42 22 -58 0 -39 22 -45 67 -18 32 19 37
20 45 6 13 -22 28 -20 28 4 0 11 -7 20 -15 20 -8 0 -15 7 -15 15 0 8 -11 22
-25 31 -14 9 -25 23 -25 32 0 8 3 12 7 9 3 -4 13 -1 22 7 17 15 33 19 64 17
13 -1 17 -10 17 -38 0 -29 -3 -34 -12 -25 -16 16 -28 15 -28 -2 0 -8 11 -17
25 -20 15 -4 25 -13 25 -25 0 -10 7 -24 15 -31 9 -8 13 -21 9 -36 -4 -15 -2
-24 5 -24 6 0 11 6 11 14 0 11 22 13 108 13 59 -1 115 3 125 7 13 6 17 4 17
-11 0 -29 -29 -132 -50 -181 -19 -42 -21 -44 -52 -37 -33 6 -58 8 -135 5 -26
0 -77 13 -137 36 -95 36 -97 37 -118 18 -11 -10 -27 -34 -35 -51 -18 -45 -41
-43 -143 17 -47 28 -93 50 -102 50 -10 0 -27 9 -38 20 -16 16 -18 28 -13 70 5
41 2 54 -13 71 -18 20 -25 21 -134 14 -89 -6 -140 -15 -223 -41 -116 -36 -146
-41 -164 -23 -18 18 -40 4 -62 -39 -11 -21 -32 -47 -48 -57 -42 -28 -52 -46
-53 -93 0 -54 -19 -91 -63 -125 -19 -14 -51 -52 -72 -84 -21 -32 -50 -71 -64
-86 -25 -27 -26 -35 -32 -180 -4 -90 -12 -165 -20 -184 -11 -28 -11 -34 3 -50
39 -43 128 -188 128 -208 0 -28 58 -95 117 -135 44 -29 52 -31 103 -25 30 4
84 9 120 11 36 1 92 12 124 23 86 30 111 28 150 -15 30 -33 36 -35 82 -32 l49
3 3 -130 c3 -127 3 -131 32 -167 16 -20 37 -53 46 -75 9 -21 25 -54 35 -73 9
-19 20 -67 24 -106 6 -61 4 -80 -18 -140 -42 -117 -43 -142 -8 -223 16 -39 39
-121 50 -182 16 -90 30 -133 75 -228 59 -124 65 -147 41 -165 -14 -10 -11 -16
17 -43 18 -18 42 -34 53 -35 33 -4 197 22 243 39 79 28 202 202 202 286 0 35
6 45 50 85 56 50 60 67 35 148 -18 61 -10 76 80 141 88 63 110 108 102 206 -3
40 -12 92 -21 117 -8 25 -20 69 -26 98 -12 52 -11 55 25 130 31 62 58 96 135
173 61 60 112 121 137 165 45 76 93 185 93 209 0 9 12 27 26 40 40 37 13 41
-110 16 -115 -23 -145 -19 -168 22 -29 53 -110 167 -117 167 -5 0 -14 14 -22
31 -7 18 -23 43 -36 57 -17 18 -23 37 -23 68 0 51 -46 171 -99 258 -21 34 -41
73 -45 87 -6 22 -6 22 5 4 17 -29 17 -29 33 -16 8 7 20 10 26 6 15 -9 56 -94
65 -132 4 -19 19 -41 36 -54 21 -15 29 -29 29 -52 1 -42 29 -102 73 -155 20
-24 38 -57 41 -75 3 -18 8 -50 11 -72 9 -55 30 -85 60 -85 35 0 286 128 362
184 34 25 70 58 80 73 10 15 27 36 38 45 11 10 17 17 12 18 -4 0 -1 13 8 30
22 42 20 46 -29 75 -29 17 -49 38 -61 65 -10 22 -20 40 -23 40 -3 0 -25 -18
-49 -41 -69 -64 -84 -57 -153 76 -32 61 -56 113 -53 118 13 22 52 3 97 -49 57
-65 94 -84 148 -77 30 5 38 2 38 -10 0 -30 56 -48 181 -56 116 -8 122 -10 152
-40 18 -17 48 -36 66 -42 32 -11 33 -13 16 -25 -18 -13 -18 -15 5 -39 29 -31
44 -32 64 -3 15 22 16 20 16 -32 0 -63 34 -214 55 -247 8 -12 15 -28 15 -36 0
-22 98 -217 109 -217 6 0 -5 26 -24 58 -32 53 -56 111 -107 252 -11 30 -23 99
-28 153 -4 54 -11 101 -15 105 -4 4 -16 -5 -27 -20 -16 -23 -23 -26 -39 -18
-20 11 -26 40 -9 40 24 0 7 30 -24 40 -18 6 -48 24 -67 41 -39 35 -43 36 -173
44 -113 7 -146 17 -153 45 -4 17 -14 20 -57 20 -62 0 -105 24 -143 79 -16 22
-37 44 -48 49 -20 9 -65 -1 -65 -15 0 -4 21 -50 47 -101 61 -118 69 -132 80
-143 15 -15 89 18 118 53 l24 29 15 -34 c8 -20 33 -48 60 -66 50 -35 54 -42
31 -61 -8 -7 -15 -19 -15 -27 0 -27 -72 -108 -135 -152 -57 -40 -321 -171
-344 -171 -26 0 -30 7 -46 98 -12 69 -20 87 -64 146 -35 46 -51 77 -51 97 0
43 -25 96 -49 104 -13 4 -21 15 -21 28 -1 29 -34 103 -67 145 -23 31 -27 33
-36 17 -9 -17 -11 -16 -28 6 -16 22 -18 23 -25 5 -7 -18 0 -34 69 -161 49 -92
67 -141 74 -205 4 -44 12 -65 29 -81 13 -12 24 -28 24 -35 0 -7 15 -30 33 -52
53 -66 107 -142 107 -153 0 -21 54 -59 84 -59 27 0 56 6 183 35 21 5 22 4 8
-22 -7 -16 -25 -60 -39 -98 -43 -116 -108 -216 -186 -286 -75 -68 -139 -151
-171 -225 -24 -53 -20 -110 13 -207 27 -79 30 -202 6 -239 -10 -15 -46 -48
-80 -74 -90 -67 -103 -87 -89 -134 6 -20 11 -55 11 -77 0 -34 -7 -47 -45 -85
-35 -36 -45 -53 -45 -79 0 -71 -100 -229 -168 -267 -32 -17 -203 -52 -259 -52
-11 0 -32 11 -48 26 -26 24 -26 26 -10 44 17 19 16 24 -40 142 -47 100 -63
147 -83 248 -13 69 -35 149 -48 179 -32 70 -30 116 6 221 28 81 29 93 21 154
-5 36 -18 81 -29 99 -11 17 -22 44 -25 58 -4 14 -23 48 -44 75 l-38 49 0 121
c0 147 -6 159 -75 150 -42 -6 -48 -4 -59 18 -16 30 -55 51 -88 48 -14 -1 -55
-11 -90 -22 -36 -11 -90 -20 -120 -20 -30 0 -74 -5 -99 -11 -34 -9 -51 -8 -74
1 -67 28 -150 113 -150 154 0 19 -65 123 -117 189 -21 26 -21 30 -7 68 9 27
14 82 14 158 0 112 12 191 29 191 5 0 28 29 51 66 24 36 61 80 82 98 47 40 80
101 72 132 -7 29 11 62 56 101 21 18 43 46 50 63 13 31 24 37 35 20 11 -19 81
-10 171 21 65 22 123 33 213 41 117 10 125 10 138 -8 10 -14 13 -34 8 -70 -6
-48 -4 -53 21 -73 15 -11 32 -21 38 -21 6 0 46 -20 89 -44 133 -76 137 -76
178 -8 10 18 25 35 33 38 8 3 65 -11 126 -31 89 -28 120 -34 158 -29 26 3 59
1 74 -5 22 -8 31 -6 52 10 28 22 63 118 73 199 l6 52 -34 -8 c-19 -4 -41 -7
-49 -6 -8 1 -50 3 -94 4 -90 4 -109 17 -120 89 -7 46 5 69 35 69 11 0 28 9 39
20 11 11 30 20 43 20 12 1 33 7 47 15 35 20 86 18 148 -5 63 -24 119 -26 150
-4 36 25 26 49 -44 111 -60 53 -65 62 -55 81 31 58 5 76 -69 46 -42 -17 -50
-33 -25 -54 26 -22 1 -35 -35 -20 -26 11 -30 17 -26 36 5 17 1 26 -14 34 -56
30 -160 -96 -160 -193 0 -55 -13 -67 -71 -67 -29 0 -51 -6 -59 -15 -7 -8 -19
-15 -26 -15 -21 0 -17 -34 6 -55 11 -10 20 -24 20 -31 0 -16 -48 -54 -67 -54
-21 0 -11 23 15 35 27 12 25 38 -3 43 -20 4 -20 4 0 -12 17 -13 17 -15 3 -16
-23 0 -66 55 -98 125 -21 45 -40 70 -79 99 -28 21 -61 51 -72 67 -11 16 -25
29 -31 29 -6 0 -16 8 -23 17 -12 16 -14 16 -29 1 -22 -23 -21 -29 19 -97 24
-40 50 -68 80 -88 25 -15 56 -36 68 -46 l22 -17 -29 6 -29 7 7 -41 c3 -24 2
-43 -4 -47 -6 -3 -10 4 -10 17 0 35 -24 64 -75 88 -26 13 -69 49 -102 86 -59
67 -83 77 -119 49 -10 -8 -39 -15 -64 -15 -57 0 -66 -7 -82 -55 -10 -29 -24
-45 -58 -65 -37 -22 -47 -34 -58 -73 -15 -52 -26 -61 -119 -93 -59 -21 -63
-21 -78 -4 -9 10 -29 20 -45 23 -44 9 -50 32 -42 153 l7 109 50 0 c28 0 74 -3
103 -7 48 -7 56 -5 78 17 30 30 31 68 2 125 -23 43 -88 104 -88 81z m1405 -83
c-19 -62 -19 -62 44 -111 84 -67 92 -100 25 -113 -26 -5 -58 1 -120 22 l-84
28 -53 -22 c-29 -12 -60 -22 -69 -22 -10 0 -26 -10 -38 -22 -23 -25 -40 -16
-22 13 7 10 10 30 6 44 -8 30 32 120 71 158 36 35 75 37 75 3 0 -45 64 -72 91
-40 11 14 10 18 -6 30 -23 17 -13 29 35 42 51 15 53 14 45 -10z"/>
<path d="M3096 4361 c-7 -11 18 -33 27 -24 4 3 7 12 7 20 0 15 -26 18 -34 4z"/>
<path d="M10720 4355 c0 -9 5 -15 11 -13 6 2 11 8 11 13 0 5 -5 11 -11 13 -6
2 -11 -4 -11 -13z"/>
<path d="M3770 4340 c0 -5 7 -10 15 -10 8 0 15 5 15 10 0 6 -7 10 -15 10 -8 0
-15 -4 -15 -10z"/>
<path d="M7331 4318 c-25 -13 -54 -35 -65 -51 l-20 -27 22 -69 c12 -38 32 -81
43 -95 20 -25 20 -27 3 -81 l-18 -56 32 -32 c27 -27 39 -32 77 -31 66 1 78 16
70 83 -4 31 -14 64 -22 74 -15 16 -14 17 10 17 29 0 35 17 17 51 -13 24 -29
24 -46 2 -12 -16 -13 -15 -14 10 0 15 -9 40 -21 56 -25 35 -17 78 17 91 13 5
24 15 23 22 0 10 -2 10 -6 1 -2 -7 -13 -13 -23 -13 -9 0 -23 -7 -30 -15 -7 -8
-9 -15 -6 -15 4 0 2 -8 -3 -19 -8 -14 -5 -26 14 -52 14 -18 25 -43 25 -55 0
-30 20 -42 32 -20 8 14 13 15 24 5 20 -17 17 -39 -5 -39 -26 0 -38 -20 -19
-34 19 -14 31 -109 15 -125 -6 -6 -31 -11 -54 -11 -33 0 -50 6 -68 24 -24 24
-24 24 -7 84 15 57 15 62 -2 80 -24 28 -56 116 -56 157 0 29 6 39 33 55 54 34
104 45 123 29 15 -12 17 -12 12 1 -7 24 -59 23 -107 -2z"/>
<path d="M3000 4300 c0 -5 7 -10 15 -10 8 0 15 5 15 10 0 6 -7 10 -15 10 -8 0
-15 -4 -15 -10z"/>
<path d="M10640 4300 c0 -5 5 -10 10 -10 6 0 10 5 10 10 0 6 -4 10 -10 10 -5
0 -10 -4 -10 -10z"/>
<path d="M7678 4293 c26 -10 7 -93 -22 -93 -22 0 -27 29 -10 63 l15 32 -21
-24 c-24 -28 -26 -54 -4 -72 20 -16 44 -3 62 35 16 32 7 66 -16 65 -11 0 -12
-3 -4 -6z"/>
<path d="M10591 4270 c-16 -9 -6 -30 15 -30 15 0 20 25 6 34 -4 2 -14 1 -21
-4z"/>
<path d="M10383 4263 c-7 -3 -13 -19 -13 -37 0 -26 -6 -35 -26 -45 -22 -10
-25 -16 -19 -39 10 -41 22 -47 17 -8 -3 27 0 35 16 40 13 5 22 19 26 47 l6 40
31 -25 c30 -26 41 -30 68 -27 28 4 2 -25 -50 -56 -30 -18 -47 -33 -39 -33 8 0
36 14 63 30 56 36 65 70 18 70 -16 0 -34 7 -41 16 -18 21 -42 32 -57 27z"/>
<path d="M10546 4243 c-11 -11 -6 -23 9 -23 8 0 15 4 15 9 0 13 -16 22 -24 14z"/>
<path d="M3035 4182 c-90 -48 -137 -81 -130 -93 11 -17 42 -9 84 21 23 17 62
38 88 48 25 9 52 27 61 40 14 21 13 22 -9 22 -13 0 -56 -17 -94 -38z m89 17
c-3 -6 -27 -20 -53 -30 -25 -11 -68 -34 -94 -51 -52 -33 -76 -33 -29 0 33 24
163 92 175 92 5 0 5 -5 1 -11z"/>
<path d="M10530 4175 c0 -9 5 -15 11 -13 6 2 11 8 11 13 0 5 -5 11 -11 13 -6
2 -11 -4 -11 -13z"/>
<path d="M5960 4130 c0 -11 7 -20 15 -20 8 0 15 9 15 20 0 11 -7 20 -15 20 -8
0 -15 -9 -15 -20z"/>
<path d="M5944 4045 c-8 -31 1 -55 20 -55 16 0 46 26 46 40 0 14 -30 40 -46
40 -7 0 -16 -11 -20 -25z m44 -9 c5 -25 -16 -45 -27 -27 -11 17 -2 53 13 48 6
-2 13 -12 14 -21z"/>
<path d="M10333 4058 c-4 -7 -13 -33 -18 -58 -9 -39 -14 -45 -34 -42 -20 2
-22 -1 -18 -20 8 -30 -10 -50 -34 -38 -15 9 -21 5 -33 -19 -13 -24 -26 -31
-68 -41 -30 -6 -69 -23 -89 -40 -25 -19 -43 -27 -58 -23 -26 7 -26 2 0 -48 11
-23 18 -47 15 -55 -8 -20 3 -44 20 -44 7 0 25 23 39 50 20 39 31 50 49 50 13
0 29 6 35 14 10 11 7 17 -11 30 -19 13 -20 16 -5 16 10 0 29 -12 42 -26 l24
-26 22 21 c17 16 36 21 75 21 l51 0 18 73 c9 39 23 85 31 101 18 38 18 66 -2
94 -17 24 -39 29 -51 10z m35 -10 c17 -17 15 -58 -9 -135 -11 -38 -23 -79 -27
-93 -6 -22 -12 -24 -48 -22 -29 2 -47 -3 -67 -19 l-28 -21 -23 21 c-26 24 -51
26 -86 6 -24 -14 -24 -14 -3 -15 28 0 53 -10 53 -21 0 -14 -54 -11 -75 5 -11
8 -16 19 -12 30 7 19 65 46 97 46 12 0 35 14 52 30 16 17 34 28 39 25 15 -10
49 15 49 35 0 11 5 19 12 18 16 -4 38 41 38 78 0 43 15 55 38 32z m-323 -308
c9 -27 -3 -76 -21 -91 -12 -9 -14 -6 -14 20 0 18 -7 45 -15 61 -15 30 -15 30
14 30 21 0 32 -6 36 -20z"/>
<path d="M5798 4033 c-10 -2 -18 -11 -18 -19 0 -17 2 -17 35 -2 42 19 31 34
-17 21z"/>
<path d="M5720 3975 c0 -8 5 -15 10 -15 6 0 10 7 10 15 0 8 -4 15 -10 15 -5 0
-10 -7 -10 -15z"/>
<path d="M1599 3903 c18 -63 63 -128 103 -149 20 -10 15 -2 -21 34 -27 27 -54
65 -61 88 -15 47 -33 71 -21 27z"/>
<path d="M6342 3919 c2 -6 8 -10 13 -10 5 0 11 4 13 10 2 6 -4 11 -13 11 -9 0
-15 -5 -13 -11z"/>
<path d="M6060 3875 c0 -8 5 -15 10 -15 6 0 10 7 10 15 0 8 -4 15 -10 15 -5 0
-10 -7 -10 -15z"/>
<path d="M6550 3874 c0 -8 5 -12 10 -9 6 3 10 10 10 16 0 5 -4 9 -10 9 -5 0
-10 -7 -10 -16z"/>
<path d="M6480 3865 c0 -9 5 -15 11 -13 6 2 11 8 11 13 0 5 -5 11 -11 13 -6 2
-11 -4 -11 -13z"/>
<path d="M6127 3834 c-8 -8 1 -24 14 -24 5 0 9 7 9 15 0 15 -12 20 -23 9z"/>
<path d="M6750 3826 c0 -16 19 -25 38 -19 22 8 13 33 -13 33 -15 0 -25 -6 -25
-14z m37 -2 c-3 -3 -12 -4 -19 -1 -8 3 -5 6 6 6 11 1 17 -2 13 -5z"/>
<path d="M6076 3823 c-11 -11 -6 -23 9 -23 8 0 15 4 15 9 0 13 -16 22 -24 14z"/>
<path d="M6485 3820 c-4 -7 -3 -16 3 -22 14 -14 45 -2 40 15 -6 16 -34 21 -43
7z"/>
<path d="M9880 3730 c0 -5 5 -10 10 -10 6 0 10 5 10 10 0 6 -4 10 -10 10 -5 0
-10 -4 -10 -10z"/>
<path d="M1787 3653 c15 -38 35 -81 46 -96 10 -16 17 -37 14 -48 -4 -13 4 -30
25 -51 16 -17 38 -50 48 -73 18 -43 65 -85 93 -85 23 0 29 16 12 30 -18 15
-68 100 -122 210 -29 60 -39 88 -31 95 7 7 12 6 15 -4 8 -19 143 -223 203
-304 39 -55 50 -77 50 -107 0 -33 6 -44 42 -74 23 -20 88 -59 145 -87 88 -44
108 -51 142 -45 34 5 48 0 121 -44 46 -28 100 -55 121 -60 45 -12 89 -61 89
-100 0 -32 21 -55 37 -39 7 7 15 2 26 -15 11 -16 35 -30 72 -41 55 -16 56 -16
74 6 11 14 23 19 30 14 23 -14 41 -73 41 -134 0 -52 -5 -66 -40 -119 -62 -93
-87 -181 -58 -210 9 -9 7 -16 -7 -32 -16 -18 -17 -25 -8 -48 7 -15 41 -103 77
-197 71 -185 68 -180 204 -290 l62 -50 -5 -50 c-3 -27 -12 -156 -21 -285 -16
-250 -20 -277 -59 -364 -17 -40 -25 -74 -25 -116 0 -32 -5 -71 -10 -86 -8 -21
-7 -37 5 -66 8 -21 15 -54 15 -74 0 -31 -3 -35 -20 -29 -23 7 -28 -10 -5 -19
9 -3 15 -18 15 -36 0 -29 -13 -40 -25 -20 -10 16 -23 12 -36 -11 -10 -19 -6
-26 36 -62 43 -37 45 -41 27 -48 -16 -6 -21 -20 -27 -75 -4 -37 -9 -75 -12
-83 -3 -11 0 -10 11 3 11 13 16 40 16 78 0 44 4 58 14 58 41 0 19 56 -34 89
-26 15 -28 20 -16 36 12 16 13 16 19 1 21 -55 52 39 42 129 -16 142 -5 262 34
357 30 74 32 87 52 374 l21 296 -29 30 c-15 16 -57 52 -94 78 -73 55 -76 58
-123 191 -19 53 -51 135 -72 184 l-37 87 24 18 c23 18 23 19 5 39 -29 32 -5
112 62 210 33 48 37 60 37 115 -1 65 -25 130 -52 141 -9 3 -25 -3 -37 -14 -15
-14 -26 -17 -36 -11 -8 5 -26 10 -38 10 -14 0 -36 13 -52 30 -17 18 -34 28
-43 24 -10 -3 -17 4 -21 23 -13 53 -53 101 -93 112 -21 6 -78 33 -127 61 -77
44 -94 50 -125 45 -32 -5 -53 2 -147 49 -146 74 -167 92 -170 145 -1 32 -14
57 -59 119 -82 111 -175 255 -175 269 0 16 -28 43 -45 43 -7 0 -15 -7 -19 -15
-9 -23 134 -305 155 -305 5 0 9 -4 9 -10 0 -5 -6 -10 -14 -10 -17 0 -76 66
-76 85 0 8 -16 33 -36 55 -24 26 -34 45 -30 56 4 10 -3 32 -17 53 -13 20 -34
62 -46 94 -13 31 -27 60 -31 62 -5 3 3 -25 17 -62z"/>
<path d="M3495 3709 c-10 -15 3 -25 16 -12 7 7 7 13 1 17 -6 3 -14 1 -17 -5z"/>
<path d="M5092 3689 c2 -6 8 -10 13 -10 5 0 11 4 13 10 2 6 -4 11 -13 11 -9 0
-15 -5 -13 -11z"/>
<path d="M9932 3689 c2 -6 8 -10 13 -10 5 0 11 4 13 10 2 6 -4 11 -13 11 -9 0
-15 -5 -13 -11z"/>
<path d="M5067 3534 c-8 -8 1 -24 14 -24 5 0 9 7 9 15 0 15 -12 20 -23 9z"/>
<path d="M5190 3515 c0 -8 5 -15 10 -15 6 0 10 7 10 15 0 8 -4 15 -10 15 -5 0
-10 -7 -10 -15z"/>
<path d="M9976 3523 c-11 -11 -6 -23 9 -23 8 0 15 4 15 9 0 13 -16 22 -24 14z"/>
<path d="M5122 3501 c4 -13 18 -16 19 -4 0 4 -5 9 -11 12 -7 2 -11 -2 -8 -8z"/>
<path d="M3046 3483 c-11 -11 -6 -23 9 -23 8 0 15 4 15 9 0 13 -16 22 -24 14z"/>
<path d="M5066 3483 c-11 -11 -6 -23 9 -23 8 0 15 4 15 9 0 13 -16 22 -24 14z"/>
<path d="M3092 3459 c2 -6 8 -10 13 -10 5 0 11 4 13 10 2 6 -4 11 -13 11 -9 0
-15 -5 -13 -11z"/>
<path d="M9912 3458 c-16 -16 -15 -38 2 -38 18 0 39 27 31 40 -8 13 -18 13
-33 -2z m14 -25 c-10 -10 -19 5 -10 18 6 11 8 11 12 0 2 -7 1 -15 -2 -18z"/>
<path d="M7470 3415 c0 -9 5 -15 11 -13 6 2 11 8 11 13 0 5 -5 11 -11 13 -6 2
-11 -4 -11 -13z"/>
<path d="M3040 3405 c0 -9 5 -15 11 -13 6 2 11 8 11 13 0 5 -5 11 -11 13 -6 2
-11 -4 -11 -13z"/>
<path d="M3110 3405 c0 -9 5 -15 11 -13 6 2 11 8 11 13 0 5 -5 11 -11 13 -6 2
-11 -4 -11 -13z"/>
<path d="M9686 3368 c-20 -28 -21 -92 -2 -107 19 -16 28 -1 37 59 10 69 -5 91
-35 48z m24 -32 c0 -40 -8 -66 -21 -66 -10 0 -12 60 -3 84 11 28 24 17 24 -18z"/>
<path d="M9837 3384 c-8 -8 1 -24 14 -24 5 0 9 7 9 15 0 15 -12 20 -23 9z"/>
<path d="M3070 3365 c0 -8 5 -15 10 -15 6 0 10 7 10 15 0 8 -4 15 -10 15 -5 0
-10 -7 -10 -15z"/>
<path d="M3136 3372 c-3 -6 -1 -14 5 -17 15 -10 25 3 12 16 -7 7 -13 7 -17 1z"/>
<path d="M9786 3373 c-11 -11 -6 -23 9 -23 8 0 15 4 15 9 0 13 -16 22 -24 14z"/>
<path d="M3114 3329 c-7 -12 -8 -11 28 -27 38 -16 45 3 8 21 -19 10 -32 12
-36 6z"/>
<path d="M2886 3301 c-4 -5 11 -7 33 -4 33 5 57 -3 145 -45 109 -52 129 -72
75 -72 -20 0 -40 10 -59 29 -30 29 -119 66 -182 75 -43 5 -50 -5 -13 -22 14
-6 25 -19 25 -27 0 -9 5 -13 10 -10 6 4 8 15 5 26 -4 12 -2 19 7 19 27 0 137
-59 148 -80 9 -17 19 -21 53 -18 30 2 43 8 45 20 5 25 -186 118 -243 118 -24
0 -46 -4 -49 -9z"/>
<path d="M3206 3293 c-11 -11 -6 -23 9 -23 8 0 15 4 15 9 0 13 -16 22 -24 14z"/>
<path d="M362 3269 c2 -6 8 -10 13 -10 5 0 11 4 13 10 2 6 -4 11 -13 11 -9 0
-15 -5 -13 -11z"/>
<path d="M3260 3265 c0 -8 5 -15 10 -15 6 0 10 7 10 15 0 8 -4 15 -10 15 -5 0
-10 -7 -10 -15z"/>
<path d="M405 3251 c-8 -15 3 -31 21 -31 9 0 14 7 12 17 -4 20 -24 28 -33 14z"/>
<path d="M2768 3222 c2 -15 -6 -54 -17 -87 -12 -33 -21 -71 -20 -85 0 -24 12
7 39 110 12 44 13 90 2 90 -5 0 -7 -13 -4 -28z"/>
<path d="M3230 3225 c0 -9 5 -15 11 -13 6 2 11 8 11 13 0 5 -5 11 -11 13 -6 2
-11 -4 -11 -13z"/>
<path d="M477 3223 c-9 -16 6 -75 20 -80 25 -10 39 14 20 35 -9 10 -17 24 -17
30 0 14 -17 25 -23 15z m37 -64 c-3 -5 -10 -7 -15 -3 -5 3 -7 10 -3 15 3 5 10
7 15 3 5 -3 7 -10 3 -15z"/>
<path d="M9292 3178 c-21 -21 -14 -48 13 -48 25 0 51 32 40 50 -8 14 -39 12
-53 -2z m40 -13 c0 -14 -29 -31 -38 -22 -9 8 16 39 28 35 5 -2 10 -8 10 -13z"/>
<path d="M3226 3141 c-30 -32 -28 -36 24 -45 40 -7 142 14 144 29 2 16 -66 45
-105 45 -26 0 -43 -8 -63 -29z m137 -3 c22 -12 22 -12 -8 -19 -36 -8 -135 -11
-135 -4 0 3 8 14 18 26 14 17 24 20 60 15 24 -3 53 -11 65 -18z"/>
<path d="M3432 3118 c7 -19 38 -22 38 -4 0 10 -9 16 -21 16 -12 0 -19 -5 -17
-12z"/>
<path d="M9670 3105 c-6 -14 -10 -50 -10 -80 0 -46 4 -56 26 -74 15 -12 32
-21 39 -21 21 0 43 -33 60 -92 17 -60 42 -82 32 -29 -5 24 -2 31 13 36 11 4
20 11 20 16 0 5 -29 41 -65 79 l-66 70 23 40 c28 48 18 73 -31 78 -26 3 -33
-1 -41 -23z m74 -7 c8 -13 5 -24 -12 -47 -12 -17 -22 -34 -22 -39 0 -5 30 -42
67 -82 38 -41 61 -71 53 -68 -8 2 -20 -2 -27 -11 -11 -14 -12 -14 -13 5 0 30
-38 74 -77 90 -21 9 -35 23 -39 40 -7 26 1 108 12 125 9 15 45 6 58 -13z"/>
<path d="M3056 3111 c-3 -5 1 -14 9 -21 12 -10 18 -10 30 0 18 15 11 30 -15
30 -10 0 -21 -4 -24 -9z"/>
<path d="M3500 3090 c0 -5 7 -10 15 -10 8 0 15 5 15 10 0 6 -7 10 -15 10 -8 0
-15 -4 -15 -10z"/>
<path d="M2822 3079 c2 -6 8 -10 13 -10 5 0 11 4 13 10 2 6 -4 11 -13 11 -9 0
-15 -5 -13 -11z"/>
<path d="M3560 3075 c0 -8 5 -15 10 -15 6 0 10 7 10 15 0 8 -4 15 -10 15 -5 0
-10 -7 -10 -15z"/>
<path d="M3616 3073 c-11 -11 -6 -23 9 -23 8 0 15 4 15 9 0 13 -16 22 -24 14z"/>
<path d="M4820 3035 c0 -9 5 -15 11 -13 6 2 11 8 11 13 0 5 -5 11 -11 13 -6 2
-11 -4 -11 -13z"/>
<path d="M4906 3033 c-11 -11 -6 -23 9 -23 8 0 15 4 15 9 0 13 -16 22 -24 14z"/>
<path d="M2800 3020 c93 -13 91 -11 89 -104 -3 -87 6 -112 46 -144 21 -17 31
-18 75 -9 45 9 53 8 73 -10 38 -34 54 -37 18 -3 -33 31 -36 32 -96 25 -62 -6
-63 -6 -85 25 -21 29 -22 39 -16 116 l6 85 -35 14 c-19 8 -56 14 -82 14 l-48
-2 55 -7z"/>
<path d="M3612 3009 c2 -6 8 -10 13 -10 5 0 11 4 13 10 2 6 -4 11 -13 11 -9 0
-15 -5 -13 -11z"/>
<path d="M10517 3004 c-8 -8 1 -24 14 -24 5 0 9 7 9 15 0 15 -12 20 -23 9z"/>
<path d="M11236 2992 c-3 -6 -1 -14 5 -17 15 -10 25 3 12 16 -7 7 -13 7 -17 1z"/>
<path d="M4850 2965 c0 -8 5 -15 10 -15 6 0 10 7 10 15 0 8 -4 15 -10 15 -5 0
-10 -7 -10 -15z"/>
<path d="M4902 2969 c2 -6 8 -10 13 -10 5 0 11 4 13 10 2 6 -4 11 -13 11 -9 0
-15 -5 -13 -11z"/>
<path d="M3620 2944 c-14 -35 -13 -44 5 -44 8 0 15 6 15 13 0 6 3 22 6 35 9
31 -14 28 -26 -4z"/>
<path d="M9810 2955 c0 -9 5 -15 11 -13 6 2 11 8 11 13 0 5 -5 11 -11 13 -6 2
-11 -4 -11 -13z"/>
<path d="M10476 2953 c-11 -11 -6 -23 9 -23 8 0 15 4 15 9 0 13 -16 22 -24 14z"/>
<path d="M3680 2900 c0 -5 4 -10 9 -10 6 0 13 5 16 10 3 6 -1 10 -9 10 -9 0
-16 -4 -16 -10z"/>
<path d="M9680 2896 c0 -8 4 -17 9 -20 11 -7 33 18 24 27 -12 12 -33 7 -33 -7z"/>
<path d="M3380 2885 c0 -9 5 -15 11 -13 6 2 11 8 11 13 0 5 -5 11 -11 13 -6 2
-11 -4 -11 -13z"/>
<path d="M8737 2894 c-8 -8 1 -24 14 -24 5 0 9 7 9 15 0 15 -12 20 -23 9z"/>
<path d="M3242 2864 c-29 -23 -46 -30 -75 -33 -9 -1 -37 -65 -36 -83 0 -7 9 6
19 30 11 25 26 42 36 42 9 0 35 15 57 32 32 25 39 28 32 13 -16 -37 -12 -89 8
-93 12 -2 17 3 17 18 0 11 10 34 21 50 18 24 24 26 35 15 8 -7 42 -22 77 -34
48 -15 74 -18 112 -12 49 7 50 7 18 15 -18 4 -35 12 -38 17 -11 17 -23 9 -18
-11 6 -24 -14 -27 -43 -5 -10 8 -28 15 -40 15 -12 0 -37 11 -57 24 l-36 25
-13 -26 c-16 -32 -45 -46 -34 -17 18 47 4 54 -42 18z m48 -70 c0 -8 -4 -12
-10 -9 -5 3 -10 13 -10 21 0 8 5 12 10 9 6 -3 10 -13 10 -21z"/>
<path d="M3437 2884 c-8 -8 1 -24 14 -24 5 0 9 7 9 15 0 15 -12 20 -23 9z"/>
<path d="M7446 2883 c-11 -11 -6 -23 9 -23 8 0 15 4 15 9 0 13 -16 22 -24 14z"/>
<path d="M3600 2860 c0 -5 5 -10 10 -10 6 0 10 5 10 10 0 6 -4 10 -10 10 -5 0
-10 -4 -10 -10z"/>
<path d="M9640 2860 c0 -5 7 -10 15 -10 8 0 15 5 15 10 0 6 -7 10 -15 10 -8 0
-15 -4 -15 -10z"/>
<path d="M8736 2842 c-3 -6 -1 -14 5 -17 15 -10 25 3 12 16 -7 7 -13 7 -17 1z"/>
<path d="M9730 2835 c0 -8 5 -15 10 -15 6 0 10 7 10 15 0 8 -4 15 -10 15 -5 0
-10 -7 -10 -15z"/>
<path d="M3640 2820 c0 -5 5 -10 10 -10 6 0 10 5 10 10 0 6 -4 10 -10 10 -5 0
-10 -4 -10 -10z"/>
<path d="M9600 2798 c-11 -18 -20 -37 -20 -43 0 -5 9 5 20 23 11 17 22 32 25
32 11 0 4 -19 -20 -54 -13 -20 -20 -36 -15 -36 13 0 50 60 50 82 0 31 -20 29
-40 -4z"/>
<path d="M3601 2800 c-1 -9 34 -50 77 -93 70 -70 83 -78 129 -86 82 -13 143
-59 143 -109 0 -11 9 -30 19 -43 l19 -23 -44 -49 c-40 -45 -56 -77 -36 -77 4
0 27 16 51 35 50 40 61 43 61 17 0 -11 -14 -25 -36 -35 -40 -19 -37 -37 6 -37
19 0 40 11 60 30 17 17 38 30 48 30 10 0 39 -18 66 -40 26 -22 51 -40 55 -40
86 -5 144 -21 182 -51 76 -61 89 -77 89 -107 0 -39 -43 -121 -92 -177 l-42
-48 -7 -116 c-5 -92 -12 -130 -34 -183 -31 -77 -46 -93 -98 -101 -21 -3 -68
-26 -105 -51 -109 -73 -105 -69 -98 -118 5 -36 1 -54 -29 -116 -55 -115 -102
-180 -148 -203 -38 -20 -41 -20 -78 -3 -22 9 -42 15 -44 12 -3 -3 9 -29 26
-57 l32 -52 -20 -27 c-11 -15 -33 -30 -49 -34 -16 -4 -48 -12 -71 -18 -33 -8
-47 -18 -59 -43 -20 -39 -31 -47 -66 -47 -22 0 -28 -5 -28 -22 0 -12 8 -30 17
-40 16 -18 15 -19 -5 -34 -12 -8 -22 -25 -22 -37 0 -28 -9 -41 -37 -56 -13 -6
-23 -16 -23 -22 0 -10 50 18 62 36 4 5 8 20 8 32 0 22 20 48 42 55 8 3 5 12
-10 28 -31 33 -28 50 8 50 32 0 70 30 70 55 0 18 24 31 76 39 90 15 130 66
100 124 -21 41 -21 42 13 36 62 -13 128 50 205 196 44 84 48 96 42 140 -6 47
-6 49 31 74 94 65 121 80 168 90 49 11 51 12 88 86 34 68 38 87 48 195 5 66
15 127 22 136 79 106 110 162 115 209 4 43 1 52 -19 69 -13 11 -45 38 -71 59
-40 35 -55 40 -115 47 -75 8 -93 15 -141 56 -42 37 -66 36 -109 -1 -18 -16
-44 -30 -56 -30 -21 1 -20 2 5 16 30 16 48 42 41 62 -7 18 -31 15 -65 -9 -16
-12 -31 -19 -34 -16 -8 8 47 67 63 67 11 0 10 6 -7 30 -12 17 -19 30 -16 30 3
0 0 13 -5 30 -21 60 -114 120 -186 120 -25 0 -160 121 -174 155 -5 13 -8 15
-8 5z"/>
<path d="M9855 2799 c-10 -15 3 -25 16 -12 7 7 7 13 1 17 -6 3 -14 1 -17 -5z"/>
<path d="M9102 2779 c2 -6 8 -10 13 -10 5 0 11 4 13 10 2 6 -4 11 -13 11 -9 0
-15 -5 -13 -11z"/>
<path d="M9743 2743 c0 -16 -3 -37 -7 -48 -7 -16 -5 -16 9 3 9 13 22 21 28 19
7 -2 25 2 40 10 40 20 57 10 57 -31 0 -25 -7 -39 -22 -50 -30 -21 -37 -20 -48
9 -5 14 -16 25 -24 25 -23 0 -46 -11 -46 -23 0 -7 4 -7 12 1 19 19 42 14 53
-10 23 -52 85 -22 85 42 0 49 -14 60 -65 53 -33 -4 -43 -2 -48 11 -10 25 -24
19 -24 -11z"/>
<path d="M8327 2742 c-22 -24 -22 -80 -1 -103 13 -15 21 -16 38 -7 32 17 36
29 20 67 -23 55 -37 65 -57 43z m33 -17 c6 -8 13 -29 13 -47 2 -29 -1 -33 -23
-33 -27 0 -37 26 -26 71 7 28 18 30 36 9z"/>
<path d="M10772 2739 c2 -6 8 -10 13 -10 5 0 11 4 13 10 2 6 -4 11 -13 11 -9
0 -15 -5 -13 -11z"/>
<path d="M11342 2739 c2 -6 8 -10 13 -10 5 0 11 4 13 10 2 6 -4 11 -13 11 -9
0 -15 -5 -13 -11z"/>
<path d="M8080 2710 c0 -5 7 -10 15 -10 8 0 15 5 15 10 0 6 -7 10 -15 10 -8 0
-15 -4 -15 -10z"/>
<path d="M10680 2710 c0 -5 5 -10 10 -10 6 0 10 5 10 10 0 6 -4 10 -10 10 -5
0 -10 -4 -10 -10z"/>
<path d="M10732 2699 c2 -6 8 -10 13 -10 5 0 11 4 13 10 2 6 -4 11 -13 11 -9
0 -15 -5 -13 -11z"/>
<path d="M8082 2659 c2 -6 8 -10 13 -10 5 0 11 4 13 10 2 6 -4 11 -13 11 -9 0
-15 -5 -13 -11z"/>
<path d="M10134 2655 c-8 -20 3 -48 16 -40 13 8 13 55 0 55 -6 0 -13 -7 -16
-15z m13 -17 c-3 -8 -6 -5 -6 6 -1 11 2 17 5 13 3 -3 4 -12 1 -19z"/>
<path d="M8776 2652 c-3 -6 -1 -14 5 -17 15 -10 25 3 12 16 -7 7 -13 7 -17 1z"/>
<path d="M9504 2609 c-27 -28 -73 -66 -101 -85 -29 -19 -53 -39 -53 -44 0 -6
-16 -16 -35 -24 -28 -12 -35 -20 -35 -43 1 -36 30 -99 67 -142 24 -28 37 -34
74 -36 24 -1 51 -5 59 -9 9 -3 23 -1 33 6 15 11 6 13 -55 15 -70 2 -74 4 -105
39 -53 60 -75 154 -37 154 7 0 28 14 46 30 18 17 70 62 115 101 l82 70 31 -22
c16 -13 30 -25 30 -27 0 -2 -14 -20 -31 -40 -31 -35 -32 -36 -10 -45 11 -6 21
-17 21 -27 0 -9 6 -22 12 -28 10 -10 10 -14 0 -21 -6 -4 -28 -33 -47 -65 -35
-58 -45 -96 -25 -96 6 0 10 13 10 29 0 16 7 34 15 41 8 7 15 18 15 25 0 8 11
26 24 42 28 34 25 92 -5 100 -26 7 -24 14 11 48 l30 29 -27 29 c-49 51 -55 51
-109 -4z"/>
<path d="M10356 2653 c-11 -11 -6 -23 9 -23 8 0 15 4 15 9 0 13 -16 22 -24 14z"/>
<path d="M10586 2653 c-11 -11 -6 -23 9 -23 8 0 15 4 15 9 0 13 -16 22 -24 14z"/>
<path d="M9670 2615 c0 -8 7 -15 15 -15 8 0 15 7 15 15 0 8 -7 15 -15 15 -8 0
-15 -7 -15 -15z"/>
<path d="M10530 2615 c0 -9 5 -15 11 -13 6 2 11 8 11 13 0 5 -5 11 -11 13 -6
2 -11 -4 -11 -13z"/>
<path d="M8096 2612 c-3 -6 -1 -14 5 -17 15 -10 25 3 12 16 -7 7 -13 7 -17 1z"/>
<path d="M8887 2582 c28 -12 67 -45 122 -106 45 -49 81 -95 81 -102 0 -18 68
-74 90 -74 11 0 20 -3 20 -7 0 -18 -39 -108 -47 -110 -13 -5 -123 114 -123
131 0 7 -13 29 -29 49 -15 20 -40 60 -55 89 -14 29 -42 71 -62 93 -33 38 -33
36 9 -25 24 -36 49 -79 56 -97 7 -18 20 -38 28 -45 8 -6 25 -32 38 -57 13 -25
48 -73 79 -106 l56 -60 20 24 c11 13 20 32 20 42 0 10 5 29 11 43 14 30 -1 56
-31 56 -10 0 -29 14 -42 31 -13 17 -50 61 -84 98 -33 37 -69 79 -78 93 -18 28
-72 58 -103 57 -10 0 1 -8 24 -17z"/>
<path d="M11087 2594 c-8 -8 1 -24 14 -24 5 0 9 7 9 15 0 15 -12 20 -23 9z"/>
<path d="M8082 2549 c2 -6 8 -10 13 -10 5 0 11 4 13 10 2 6 -4 11 -13 11 -9 0
-15 -5 -13 -11z"/>
<path d="M9256 2543 c-11 -11 -6 -23 9 -23 8 0 15 4 15 9 0 13 -16 22 -24 14z"/>
<path d="M5920 2520 c0 -5 7 -10 15 -10 8 0 15 5 15 10 0 6 -7 10 -15 10 -8 0
-15 -4 -15 -10z"/>
<path d="M8846 2503 c-11 -11 -6 -23 9 -23 8 0 15 4 15 9 0 13 -16 22 -24 14z"/>
<path d="M9936 2503 c-11 -11 -6 -23 9 -23 8 0 15 4 15 9 0 13 -16 22 -24 14z"/>
<path d="M5897 2474 c-8 -8 1 -24 14 -24 5 0 9 7 9 15 0 15 -12 20 -23 9z"/>
<path d="M2632 2439 c2 -6 8 -10 13 -10 5 0 11 4 13 10 2 6 -4 11 -13 11 -9 0
-15 -5 -13 -11z"/>
<path d="M9906 2434 c-9 -25 -7 -65 6 -101 15 -40 29 -43 26 -5 -1 16 4 43 11
60 7 17 11 38 7 47 -7 20 -42 19 -50 -1z m37 -1 c7 -14 -13 -74 -23 -68 -11 7
-13 58 -3 68 9 9 21 9 26 0z"/>
<path d="M8900 2425 c0 -8 5 -15 10 -15 6 0 10 7 10 15 0 8 -4 15 -10 15 -5 0
-10 -7 -10 -15z"/>
<path d="M9680 2427 c-40 -20 -63 -97 -56 -182 6 -67 26 -115 47 -115 6 0 3 7
-5 16 -9 8 -16 21 -17 27 0 7 -3 23 -6 37 -10 45 -4 138 10 173 13 30 20 35
62 40 67 10 95 9 95 -3 0 -5 -23 -10 -51 -10 -60 0 -89 -13 -89 -40 0 -17 6
-20 48 -19 l47 2 -39 6 c-22 3 -41 11 -43 18 -5 15 38 27 66 18 11 -3 37 1 58
10 30 13 35 18 23 25 -22 14 -121 12 -150 -3z"/>
<path d="M11370 2425 c0 -9 5 -15 11 -13 6 2 11 8 11 13 0 5 -5 11 -11 13 -6
2 -11 -4 -11 -13z"/>
<path d="M5856 2423 c-11 -11 -6 -23 9 -23 8 0 15 4 15 9 0 13 -16 22 -24 14z"/>
<path d="M9987 2394 c-8 -8 1 -24 14 -24 5 0 9 7 9 15 0 15 -12 20 -23 9z"/>
<path d="M2636 2383 c-11 -11 -6 -23 9 -23 8 0 15 4 15 9 0 13 -16 22 -24 14z"/>
<path d="M2576 2372 c-2 -4 -1 -14 4 -22 7 -11 12 -12 21 -3 6 6 8 16 5 22 -8
13 -23 14 -30 3z"/>
<path d="M11190 2370 c0 -5 7 -10 15 -10 8 0 15 5 15 10 0 6 -7 10 -15 10 -8
0 -15 -4 -15 -10z"/>
<path d="M2690 2355 c0 -8 5 -15 10 -15 6 0 10 7 10 15 0 8 -4 15 -10 15 -5 0
-10 -7 -10 -15z"/>
<path d="M10030 2355 c0 -8 13 -23 29 -33 22 -13 26 -20 18 -33 -17 -27 -1
-49 35 -49 41 0 135 -53 149 -84 8 -17 8 -30 -1 -46 -8 -15 -8 -20 -1 -16 31
20 31 45 0 80 -35 40 -128 90 -151 81 -24 -9 -32 14 -13 35 16 17 15 19 -19
35 -45 22 -47 39 -3 30 50 -11 64 -22 70 -54 9 -43 42 -50 76 -17 l28 27 80
-31 c44 -17 113 -51 153 -76 81 -50 103 -54 37 -7 -53 38 -124 74 -204 103
l-63 23 -35 -28 c-29 -21 -39 -24 -50 -15 -8 7 -15 23 -15 37 0 18 -9 28 -35
39 -46 19 -85 18 -85 -1z"/>
<path d="M11400 2345 c0 -9 5 -15 11 -13 6 2 11 8 11 13 0 5 -5 11 -11 13 -6
2 -11 -4 -11 -13z"/>
<path d="M9770 2342 c0 -7 -15 -12 -35 -12 -43 0 -47 -25 -10 -60 18 -17 25
-34 25 -62 0 -53 -14 -48 -36 13 -11 28 -23 52 -29 53 -5 0 -11 -27 -13 -61
-2 -36 1 -63 7 -63 6 0 7 22 4 57 -7 65 11 68 22 4 12 -71 51 -75 62 -8 5 32
2 40 -26 66 -39 36 -39 51 -2 51 29 0 49 15 37 27 -3 4 -6 1 -6 -5z"/>
<path d="M8950 2330 c0 -5 7 -10 15 -10 8 0 15 5 15 10 0 6 -7 10 -15 10 -8 0
-15 -4 -15 -10z"/>
<path d="M9980 2326 c0 -8 4 -17 9 -20 11 -7 33 18 24 27 -12 12 -33 7 -33 -7z"/>
<path d="M10170 2330 c0 -5 7 -10 15 -10 8 0 15 5 15 10 0 6 -7 10 -15 10 -8
0 -15 -4 -15 -10z"/>
<path d="M10390 2330 c0 -5 7 -10 15 -10 8 0 15 5 15 10 0 6 -7 10 -15 10 -8
0 -15 -4 -15 -10z"/>
<path d="M10650 2330 c0 -5 7 -10 15 -10 8 0 15 5 15 10 0 6 -7 10 -15 10 -8
0 -15 -4 -15 -10z"/>
<path d="M5827 2324 c-8 -8 1 -24 14 -24 5 0 9 7 9 15 0 15 -12 20 -23 9z"/>
<path d="M9267 2324 c-8 -8 1 -24 14 -24 5 0 9 7 9 15 0 15 -12 20 -23 9z"/>
<path d="M10542 2319 c2 -6 8 -10 13 -10 5 0 11 4 13 10 2 6 -4 11 -13 11 -9
0 -15 -5 -13 -11z"/>
<path d="M9810 2305 c0 -9 5 -15 11 -13 6 2 11 8 11 13 0 5 -5 11 -11 13 -6 2
-11 -4 -11 -13z"/>
<path d="M9866 2313 c-11 -11 -6 -23 9 -23 8 0 15 4 15 9 0 13 -16 22 -24 14z"/>
<path d="M11440 2305 c0 -9 5 -15 11 -13 6 2 11 8 11 13 0 5 -5 11 -11 13 -6
2 -11 -4 -11 -13z"/>
<path d="M11492 2289 c2 -6 8 -10 13 -10 5 0 11 4 13 10 2 6 -4 11 -13 11 -9
0 -15 -5 -13 -11z"/>
<path d="M8980 2277 c0 -7 6 -22 14 -33 14 -18 15 -18 21 -1 7 17 -10 47 -26
47 -5 0 -9 -6 -9 -13z m30 -18 c0 -6 -4 -7 -10 -4 -5 3 -10 11 -10 16 0 6 5 7
10 4 6 -3 10 -11 10 -16z"/>
<path d="M9240 2275 c0 -8 5 -15 10 -15 6 0 10 7 10 15 0 8 -4 15 -10 15 -5 0
-10 -7 -10 -15z"/>
<path d="M10740 2271 c0 -23 35 -56 44 -42 9 14 -9 47 -29 55 -10 3 -15 -1
-15 -13z m30 -16 c7 -9 8 -15 2 -15 -5 0 -12 7 -16 15 -3 8 -4 15 -2 15 2 0 9
-7 16 -15z"/>
<path d="M9934 2269 c-10 -16 17 -30 46 -23 31 7 34 10 25 23 -8 14 -62 14
-71 0z m43 -5 c-3 -3 -12 -4 -19 -1 -8 3 -5 6 6 6 11 1 17 -2 13 -5z"/>
<path d="M9862 2249 c2 -6 8 -10 13 -10 5 0 11 4 13 10 2 6 -4 11 -13 11 -9 0
-15 -5 -13 -11z"/>
<path d="M7516 2233 c-11 -11 -6 -23 9 -23 8 0 15 4 15 9 0 13 -16 22 -24 14z"/>
<path d="M10673 2211 c-33 -16 -47 -36 -37 -52 11 -18 43 -8 68 22 43 50 31
61 -31 30z m37 -11 c-14 -26 -49 -45 -62 -32 -6 6 4 17 29 30 21 11 39 21 41
21 1 1 -2 -8 -8 -19z"/>
<path d="M7010 2195 c0 -9 5 -15 11 -13 6 2 11 8 11 13 0 5 -5 11 -11 13 -6 2
-11 -4 -11 -13z"/>
<path d="M10080 2180 c0 -5 7 -10 15 -10 8 0 15 5 15 10 0 6 -7 10 -15 10 -8
0 -15 -4 -15 -10z"/>
<path d="M10580 2180 c0 -5 7 -10 15 -10 8 0 15 5 15 10 0 6 -7 10 -15 10 -8
0 -15 -4 -15 -10z"/>
<path d="M9797 2174 c-8 -8 1 -24 14 -24 5 0 9 7 9 15 0 15 -12 20 -23 9z"/>
<path d="M10137 2174 c-8 -8 1 -24 14 -24 5 0 9 7 9 15 0 15 -12 20 -23 9z"/>
<path d="M10817 2174 c-8 -8 1 -24 14 -24 5 0 9 7 9 15 0 15 -12 20 -23 9z"/>
<path d="M7446 2163 c-11 -11 -6 -23 9 -23 8 0 15 4 15 9 0 13 -16 22 -24 14z"/>
<path d="M9177 2153 c-29 -29 32 -63 158 -87 44 -9 90 -18 101 -22 27 -7 38 9
25 34 -15 28 -69 50 -163 67 -94 17 -112 18 -121 8z m90 -18 c31 -8 71 -15 89
-15 33 0 94 -35 102 -59 3 -10 0 -12 -14 -7 -11 4 -60 16 -109 26 -113 23
-145 35 -145 55 0 19 5 19 77 0z"/>
<path d="M6990 2140 c0 -5 7 -10 15 -10 8 0 15 5 15 10 0 6 -7 10 -15 10 -8 0
-15 -4 -15 -10z"/>
<path d="M10870 2140 c0 -5 5 -10 10 -10 6 0 10 5 10 10 0 6 -4 10 -10 10 -5
0 -10 -4 -10 -10z"/>
<path d="M9440 2125 c0 -8 9 -15 20 -15 11 0 20 7 20 15 0 8 -9 15 -20 15 -11
0 -20 -7 -20 -15z"/>
<path d="M9510 2125 c0 -9 5 -15 11 -13 6 2 11 8 11 13 0 5 -5 11 -11 13 -6 2
-11 -4 -11 -13z"/>
<path d="M11510 2125 c0 -8 5 -15 10 -15 6 0 10 7 10 15 0 8 -4 15 -10 15 -5
0 -10 -7 -10 -15z"/>
<path d="M9716 2123 c-11 -11 -6 -23 9 -23 8 0 15 4 15 9 0 13 -16 22 -24 14z"/>
<path d="M10581 2107 c-1 -19 12 -41 40 -72 30 -32 37 -45 25 -45 -29 0 -86
28 -86 43 0 20 -43 57 -66 57 -11 0 -29 -7 -40 -16 -19 -15 -19 -16 1 -9 11 4
27 9 37 12 16 5 39 -14 70 -59 9 -13 34 -30 56 -36 32 -10 44 -9 71 4 35 17
34 34 -1 27 -27 -5 -80 45 -96 92 l-10 30 -1 -28z"/>
<path d="M10924 2119 c-8 -14 11 -33 25 -25 16 10 13 36 -3 36 -8 0 -18 -5
-22 -11z"/>
<path d="M9902 2099 c2 -6 8 -10 13 -10 5 0 11 4 13 10 2 6 -4 11 -13 11 -9 0
-15 -5 -13 -11z"/>
<path d="M10010 2085 c0 -8 9 -15 20 -15 11 0 20 7 20 15 0 8 -9 15 -20 15
-11 0 -20 -7 -20 -15z"/>
<path d="M10880 2084 c0 -9 5 -14 12 -12 18 6 21 28 4 28 -9 0 -16 -7 -16 -16z"/>
<path d="M11577 2094 c-8 -8 1 -24 14 -24 5 0 9 7 9 15 0 15 -12 20 -23 9z"/>
<path d="M7015 2079 c-10 -15 3 -25 16 -12 7 7 7 13 1 17 -6 3 -14 1 -17 -5z"/>
<path d="M9960 2075 c0 -8 5 -15 10 -15 6 0 10 7 10 15 0 8 -4 15 -10 15 -5 0
-10 -7 -10 -15z"/>
<path d="M10995 2080 c-4 -7 -2 -17 4 -23 9 -9 11 -8 6 6 -4 9 -3 17 3 17 6 0
13 -7 15 -15 4 -12 5 -11 3 1 -1 21 -21 29 -31 14z"/>
<path d="M9829 2047 c-43 -32 -63 -67 -38 -67 24 0 110 63 107 78 -5 27 -24
24 -69 -11z m61 14 c0 -10 -38 -39 -77 -60 -39 -20 -25 6 20 38 45 32 57 37
57 22z"/>
<path d="M10283 2069 c21 -5 51 -16 67 -24 31 -16 90 -20 90 -6 0 4 -11 6 -24
4 -13 -3 -45 5 -71 16 -26 12 -59 21 -74 20 -21 -1 -19 -3 12 -10z"/>
<path d="M9495 2061 c-6 -11 9 -23 19 -14 9 9 7 23 -3 23 -6 0 -12 -4 -16 -9z"/>
<path d="M9770 2055 c0 -8 5 -15 10 -15 6 0 10 7 10 15 0 8 -4 15 -10 15 -5 0
-10 -7 -10 -15z"/>
<path d="M9550 2046 c0 -11 10 -16 31 -16 38 0 35 24 -4 28 -19 2 -27 -1 -27
-12z"/>
<path d="M9660 2046 c0 -16 19 -25 38 -19 22 8 13 33 -13 33 -15 0 -25 -6 -25
-14z"/>
<path d="M10966 2043 c-11 -11 -6 -23 9 -23 8 0 15 4 15 9 0 13 -16 22 -24 14z"/>
<path d="M9636 2013 c-11 -11 -6 -23 9 -23 8 0 15 4 15 9 0 13 -16 22 -24 14z"/>
<path d="M9710 1990 c0 -5 7 -10 15 -10 8 0 15 5 15 10 0 6 -7 10 -15 10 -8 0
-15 -4 -15 -10z"/>
<path d="M11030 1990 c0 -5 7 -10 15 -10 8 0 15 5 15 10 0 6 -7 10 -15 10 -8
0 -15 -4 -15 -10z"/>
<path d="M10736 1973 c-11 -11 -6 -23 9 -23 8 0 15 4 15 9 0 13 -16 22 -24 14z"/>
<path d="M10050 1940 c-11 -21 -32 -28 -27 -9 1 6 -3 13 -9 16 -7 2 -11 -11
-11 -35 0 -22 -7 -50 -16 -62 -8 -12 -13 -29 -10 -36 9 -23 -60 -18 -82 6 -10
11 -24 20 -32 20 -21 0 -93 -78 -93 -102 0 -20 -1 -20 -20 -3 -19 17 -20 16
-32 -30 -13 -49 -64 -105 -94 -105 -20 0 -136 -65 -175 -97 -34 -29 -36 -56
-9 -101 26 -42 26 -60 0 -37 -32 29 -36 -5 -7 -62 34 -67 56 -144 65 -233 7
-73 8 -75 44 -95 l37 -20 63 33 c35 17 77 32 94 32 18 0 47 12 71 30 111 81
294 66 343 -29 11 -23 25 -41 30 -41 5 0 21 18 36 41 25 41 45 49 25 11 -18
-33 -14 -64 7 -58 11 4 21 -1 27 -13 75 -141 123 -177 181 -136 19 13 23 12
44 -10 30 -32 41 -31 68 5 16 22 31 30 52 30 27 0 31 4 46 57 9 31 29 87 45
124 33 78 59 213 59 309 0 66 -1 69 -32 87 -30 18 -118 120 -118 137 0 4 -18
23 -39 44 -39 38 -61 89 -61 148 0 17 -13 50 -29 75 -16 24 -32 58 -36 76 -3
17 -13 37 -22 44 -22 19 -37 -6 -53 -84 -14 -70 -36 -145 -49 -166 -8 -12 -17
-10 -53 13 -93 61 -105 89 -72 160 9 19 14 40 11 48 -5 14 -88 38 -132 38 -14
0 -29 -9 -35 -20z m133 -13 c18 -8 25 -17 21 -27 -23 -53 -34 -95 -29 -110 6
-18 87 -85 133 -109 21 -11 24 -9 43 33 11 25 28 84 38 131 22 105 35 123 50
68 6 -22 23 -58 37 -79 16 -22 29 -61 34 -94 10 -68 41 -134 75 -156 14 -9 25
-20 25 -25 0 -21 92 -128 121 -139 l32 -14 -7 -95 c-7 -115 -27 -202 -65 -296
-16 -38 -32 -86 -36 -106 -6 -31 -12 -38 -36 -43 -16 -3 -40 -17 -53 -31 -28
-31 -34 -31 -63 -3 -20 19 -27 20 -43 10 -43 -26 -119 -6 -120 31 0 7 -14 29
-30 50 -16 22 -26 45 -24 52 8 20 -15 29 -33 13 -15 -12 -16 -10 -9 12 12 37
12 73 1 77 -6 1 -21 -18 -35 -43 l-24 -47 -16 23 c-34 51 -78 89 -118 101 -58
17 -198 -9 -246 -46 -18 -14 -56 -29 -84 -35 -28 -5 -69 -21 -91 -35 -49 -30
-61 -31 -95 -4 -22 17 -26 29 -26 68 0 65 -34 195 -66 248 -26 45 -26 73 0 37
14 -18 15 -18 22 -1 4 11 -2 35 -15 62 -17 35 -19 48 -10 67 11 26 99 82 184
118 70 30 105 66 105 107 0 18 5 33 10 33 6 0 10 -4 10 -10 0 -5 7 -10 15 -10
9 0 15 9 15 21 0 12 18 39 41 61 l41 40 21 -20 c41 -36 123 -38 112 -2 -7 23
19 82 44 98 12 7 21 19 21 28 0 12 8 14 48 9 26 -4 59 -12 75 -18z"/>
<path d="M10980 1950 c0 -5 5 -10 10 -10 6 0 10 5 10 10 0 6 -4 10 -10 10 -5
0 -10 -4 -10 -10z"/>
<path d="M7096 1933 c-11 -11 -6 -23 9 -23 8 0 15 4 15 9 0 13 -16 22 -24 14z"/>
<path d="M7130 1895 c0 -9 5 -15 11 -13 6 2 11 8 11 13 0 5 -5 11 -11 13 -6 2
-11 -4 -11 -13z"/>
<path d="M7282 1866 c-11 -24 -32 -52 -47 -62 -16 -11 -46 -35 -67 -55 -36
-35 -38 -39 -38 -101 0 -40 -6 -78 -16 -97 -19 -37 -14 -90 13 -145 21 -45 37
-51 82 -29 32 16 39 26 58 88 40 133 84 334 77 362 -9 44 -26 83 -35 83 -4 0
-17 -20 -27 -44z m42 2 c11 -43 6 -93 -20 -203 -58 -244 -64 -262 -90 -274
-54 -24 -70 -12 -94 78 -9 35 -8 48 10 87 14 33 18 57 14 85 -10 58 11 95 73
135 39 25 60 46 71 74 19 46 27 49 36 18z"/>
<path d="M7170 1856 c0 -9 7 -16 16 -16 17 0 14 22 -4 28 -7 2 -12 -3 -12 -12z"/>
<path d="M10217 1864 c-8 -8 1 -24 14 -24 5 0 9 7 9 15 0 15 -12 20 -23 9z"/>
<path d="M11907 1854 c-13 -13 -7 -24 12 -24 11 0 23 -5 26 -10 7 -12 25 -4
25 11 0 5 -8 9 -18 9 -10 0 -23 5 -28 10 -6 6 -13 7 -17 4z"/>
<path d="M11180 1784 c0 -9 5 -14 12 -12 18 6 21 28 4 28 -9 0 -16 -7 -16 -16z"/>
<path d="M7470 1745 c0 -9 5 -15 11 -13 6 2 11 8 11 13 0 5 -5 11 -11 13 -6 2
-11 -4 -11 -13z"/>
<path d="M11196 1743 c-11 -11 -6 -23 9 -23 8 0 15 4 15 9 0 13 -16 22 -24 14z"/>
<path d="M11606 1743 c-11 -11 -6 -23 9 -23 8 0 15 4 15 9 0 13 -16 22 -24 14z"/>
<path d="M11237 1714 c-8 -8 1 -24 14 -24 5 0 9 7 9 15 0 15 -12 20 -23 9z"/>
<path d="M695 1699 c-10 -15 3 -25 16 -12 7 7 7 13 1 17 -6 3 -14 1 -17 -5z"/>
<path d="M11566 1703 c-11 -11 -6 -23 9 -23 8 0 15 4 15 9 0 13 -16 22 -24 14z"/>
<path d="M730 1665 c0 -9 5 -15 11 -13 6 2 11 8 11 13 0 5 -5 11 -11 13 -6 2
-11 -4 -11 -13z"/>
<path d="M11807 1604 c-8 -8 1 -24 14 -24 5 0 9 7 9 15 0 15 -12 20 -23 9z"/>
<path d="M1112 1569 c2 -6 8 -10 13 -10 5 0 11 4 13 10 2 6 -4 11 -13 11 -9 0
-15 -5 -13 -11z"/>
<path d="M7565 1570 c-3 -5 1 -10 9 -10 9 0 16 5 16 10 0 6 -4 10 -9 10 -6 0
-13 -4 -16 -10z"/>
<path d="M11130 1567 c0 -7 14 -21 31 -31 24 -14 34 -15 42 -6 9 9 6 16 -12
31 -26 22 -61 25 -61 6z m50 -12 c16 -19 0 -19 -26 0 -16 12 -16 14 -3 15 9 0
22 -7 29 -15z"/>
<path d="M7510 1555 c0 -9 5 -15 11 -13 6 2 11 8 11 13 0 5 -5 11 -11 13 -6 2
-11 -4 -11 -13z"/>
<path d="M11767 1564 c-8 -8 1 -24 14 -24 5 0 9 7 9 15 0 15 -12 20 -23 9z"/>
<path d="M976 1553 c-11 -11 -6 -23 9 -23 8 0 15 4 15 9 0 13 -16 22 -24 14z"/>
<path d="M1192 1489 c2 -6 8 -10 13 -10 5 0 11 4 13 10 2 6 -4 11 -13 11 -9 0
-15 -5 -13 -11z"/>
<path d="M1386 1443 c-11 -11 -6 -23 9 -23 8 0 15 4 15 9 0 13 -16 22 -24 14z"/>
<path d="M1507 1414 c-8 -8 1 -24 14 -24 5 0 9 7 9 15 0 15 -12 20 -23 9z"/>
<path d="M2176 1363 c-11 -11 -6 -23 9 -23 8 0 15 4 15 9 0 13 -16 22 -24 14z"/>
<path d="M2010 1325 c0 -8 5 -15 10 -15 6 0 10 7 10 15 0 8 -4 15 -10 15 -5 0
-10 -7 -10 -15z"/>
<path d="M3012 1028 c6 -18 28 -21 28 -4 0 9 -7 16 -16 16 -9 0 -14 -5 -12
-12z"/>
<path d="M11400 978 c0 -7 12 -31 25 -53 28 -46 31 -84 10 -125 -14 -27 -14
-29 6 -35 11 -4 25 -20 31 -36 14 -40 38 -34 61 14 9 20 21 37 26 37 13 0 34
58 27 76 -4 9 -12 14 -21 10 -10 -4 -20 3 -27 19 -9 20 -14 22 -30 14 -14 -8
-20 -6 -25 8 -18 53 -84 108 -83 71z m55 -48 c22 -36 35 -49 48 -46 10 2 21
-4 27 -15 6 -10 20 -19 31 -19 16 0 19 -4 14 -22 -4 -13 -15 -30 -24 -38 -10
-8 -24 -30 -31 -47 -15 -39 -26 -42 -34 -8 -3 13 -15 29 -26 35 -18 9 -18 12
-4 46 17 40 10 73 -26 123 -22 31 -25 41 -12 41 4 0 21 -23 37 -50z"/>
<path d="M10206 953 c-11 -11 -6 -23 9 -23 8 0 15 4 15 9 0 13 -16 22 -24 14z"/>
<path d="M10570 765 c0 -9 5 -15 11 -13 6 2 11 8 11 13 0 5 -5 11 -11 13 -6 2
-11 -4 -11 -13z"/>
<path d="M10450 755 c0 -8 5 -15 10 -15 6 0 10 7 10 15 0 8 -4 15 -10 15 -5 0
-10 -7 -10 -15z"/>
<path d="M10485 720 c-4 -6 -1 -32 5 -57 16 -56 47 -74 84 -49 28 18 46 80 28
98 -16 16 -108 23 -117 8z m109 -20 c4 -5 3 -24 -4 -44 -10 -30 -16 -36 -41
-36 -24 0 -31 6 -44 37 -22 52 -15 62 37 56 24 -3 47 -9 52 -13z"/>
<path d="M11371 691 c-12 -16 -21 -33 -21 -39 0 -5 -16 -22 -35 -37 -41 -31
-109 -128 -103 -146 2 -7 13 -14 24 -15 10 -2 33 -6 51 -10 26 -5 36 -1 56 20
14 15 23 34 20 44 -2 10 11 36 31 62 20 25 36 49 36 54 0 5 7 18 17 28 13 15
14 23 5 43 -16 35 -55 33 -81 -4z m67 -10 c2 -15 -3 -28 -12 -33 -9 -5 -16
-15 -16 -22 0 -7 -13 -30 -30 -51 -17 -21 -30 -50 -30 -65 0 -15 -9 -35 -20
-45 -17 -16 -24 -16 -65 -4 -25 7 -45 16 -45 20 0 9 37 57 94 120 28 31 59 68
69 83 22 32 51 31 55 -3z"/>
<path d="M3160 649 c0 -24 23 -21 28 4 2 10 -3 17 -12 17 -10 0 -16 -9 -16
-21z"/>
<path d="M3406 490 c3 -14 17 -35 31 -46 l25 -22 -31 -43 c-53 -73 -81 -119
-81 -133 0 -7 -13 -30 -30 -51 -16 -21 -30 -42 -30 -46 0 -19 -18 -8 -24 14
-5 22 -53 57 -78 57 -7 0 2 -8 21 -17 19 -10 39 -29 45 -45 12 -32 22 -35 48
-11 17 15 18 14 18 -15 0 -28 -4 -32 -26 -32 -15 0 -24 -5 -22 -12 5 -15 21
-23 82 -41 55 -17 96 -7 96 23 0 23 -84 100 -110 100 -23 0 -27 15 -6 23 8 3
20 23 25 45 6 21 20 47 31 57 11 10 20 24 20 30 0 7 14 29 30 50 35 44 38 65
9 72 -11 3 -26 20 -34 37 -12 24 -14 26 -9 6z m-7 -374 c48 -48 47 -72 0 -62
-16 3 -44 9 -61 12 -56 10 -66 17 -33 23 25 5 31 11 33 39 2 17 7 32 11 32 4
0 26 -20 50 -44z"/>
<path d="M11250 415 c0 -9 5 -15 11 -13 6 2 11 8 11 13 0 5 -5 11 -11 13 -6 2
-11 -4 -11 -13z"/>
<path d="M3130 400 c0 -5 7 -10 15 -10 8 0 15 5 15 10 0 6 -7 10 -15 10 -8 0
-15 -4 -15 -10z"/>
<path d="M7940 363 c0 -5 12 -9 27 -10 19 -1 22 1 12 8 -17 11 -39 12 -39 2z"/>
<path d="M3137 344 c-8 -8 1 -24 14 -24 5 0 9 7 9 15 0 15 -12 20 -23 9z"/>
<path d="M8000 339 c0 -7 -10 -9 -25 -7 -20 4 -23 3 -14 -8 8 -10 16 -11 30
-3 17 9 27 29 14 29 -3 0 -5 -5 -5 -11z"/>
<path d="M11170 295 c0 -8 5 -15 10 -15 6 0 10 7 10 15 0 8 -4 15 -10 15 -5 0
-10 -7 -10 -15z"/>
<path d="M3137 274 c-8 -8 1 -24 14 -24 5 0 9 7 9 15 0 15 -12 20 -23 9z"/>
<path d="M3690 238 c0 -7 -3 -24 -7 -37 -4 -18 -3 -22 8 -19 8 3 13 12 11 21
-1 8 2 18 8 22 15 9 12 25 -5 25 -8 0 -15 -6 -15 -12z"/>
<path d="M3627 233 c-4 -3 -7 -12 -7 -20 0 -15 26 -18 35 -3 3 6 -1 7 -9 4 -9
-3 -16 -1 -16 4 0 6 8 13 18 15 14 4 14 5 1 6 -9 0 -19 -2 -22 -6z"/>
<path d="M3181 181 c-8 -5 -6 -13 9 -26 11 -10 20 -25 20 -34 0 -9 3 -11 9 -6
12 13 2 62 -13 68 -7 3 -18 2 -25 -2z"/>
<path d="M8097 164 c-8 -8 1 -24 14 -24 5 0 9 7 9 15 0 15 -12 20 -23 9z"/>
<path d="M4386 111 c-8 -12 32 -41 56 -41 22 0 31 15 15 28 -19 16 -64 25 -71
13z m60 -22 c8 -14 -10 -11 -32 6 -18 13 -18 14 4 8 12 -3 25 -9 28 -14z"/>
<path d="M3490 75 c0 -9 5 -15 11 -13 6 2 11 8 11 13 0 5 -5 11 -11 13 -6 2
-11 -4 -11 -13z"/>
<path d="M3331 31 c-16 -10 -6 -31 14 -31 14 0 27 24 18 34 -8 8 -15 7 -32 -3z"/>
</g>
</svg>
